<?xml version="1.0" encoding="UTF-8"?><svg class="applyFlash" xmlns="http://www.w3.org/2000/svg" style="width: 100vw; height:100vh;"><defs><style> @keyframes slide { 0% { opacity: 0; } 5% { opacity: 1; } 25% { opacity: 1; } 30% { opacity: 0; } 100% { opacity: 0; } } .showSlide1 { opacity: 0; animation: slide .32s infinite; animation-delay: 0s; } .showSlide2 { opacity: 0; animation: slide .32s infinite; animation-delay: 0.08s; } .showSlide3 { opacity: 0; animation: slide .32s infinite; animation-delay: 0.16s; } .showSlide4 { opacity: 0; animation: slide .32s infinite; animation-delay: 0.24s; } .primary1Stroke { stroke: var(--primary, #214ff7); } .primary1Fill { fill: var(--primary, #214ff7); } .secondary1Stroke { stroke: var(--secondary, #f42a5a); } .secondary1Fill { fill: var(--secondary, #f42a5a); } @keyframes flash { 0%, 100% { --primary: #214ff7; --secondary: #f42a5a; } 50% { --primary: #3721f1; --secondary: #f03b2a; } } .applyFlash { animation: flash .16s infinite; }</style></defs><svg><rect width="100%" height="100%" fill="black" /></svg><svg xmlns="http://www.w3.org/2000/svg" viewBox="0 0 808 139.85" xmlns:v="https://vecta.io/nano" class=" applyFlash"><defs><pattern id="polka-dots" x="0" y="0" width="808" height="139.85" patternUnits="userSpaceOnUse"><g fill="none" stroke-miterlimit="10" stroke-width=".5"><g class="_w0v primary1Stroke"><path d="M5.78 11.33V5.8H.25v5.53 5.52 5.53h5.53v-5.53-5.52z"/><path d="M5.78 22.38v5.52h5.52 5.53v-5.52H11.3 5.78zm0-22.1V5.8h5.52 5.53V.28H11.3 5.78z"/><use href="#B"/><use href="#C"/><use href="#D"/><use href="#E"/><path d="M5.78 27.91v5.52h5.52 5.53v-5.52H11.3 5.78z"/><use href="#F"/><use href="#G"/><use href="#H"/><use href="#D" x="5.52" y="27.63"/><use href="#D" x="5.52" y="5.53"/><use href="#I"/><use href="#J"/><use href="#K"/><path d="M90.12 81.24v-5.53H84.6v5.53 5.52 5.52h5.52v-5.52-5.52z"/><use href="#I" x="38.76"/><use href="#L"/><use href="#D" x="62.15" y="47.81"/><use href="#K" y="27.63"/><use href="#F" x="62.15" y="69.91"/><use href="#M"/><use href="#N"/><use href="#K" x="27.71" y="49.73"/><use href="#K" x="27.71" y="27.63"/></g><g class="_zy0 secondary1Stroke"><use href="#O"/><use href="#P"/><use href="#Q"/><path d="M90.12 11.33V5.8H84.6v5.53 5.52 5.53h5.52v-5.53-5.52z"/><use href="#R"/><use href="#D" x="62.15"/><use href="#S"/><use href="#T"/><use href="#F" x="62.15"/><use href="#M" y="-69.91"/><use href="#U"/><path d="M5.78 86.76v-5.52-5.53H.25v5.53 5.52 5.52h5.53v-5.52z"/><path d="M11.3 97.81h5.53v-5.53H11.3 5.78v5.53h5.52zm5.53-22.1v-5.52H11.3 5.78v5.52h5.52 5.53z"/><use href="#V"/><use href="#W"/><use href="#L" x="-62.15"/><use href="#X"/><path d="M11.3 97.82H5.78v5.52h5.52 5.53v-5.52H11.3z"/><use href="#F" y="69.91"/><use href="#G" y="69.91"/><use href="#Y"/></g><g class="_w0v primary1Stroke"><use href="#C" x="85.54"/><use href="#K" x="62.15" y="-47.81"/><use href="#Z"/><use href="#C" x="107.73"/><use href="#B" x="140.88"/><use href="#K" x="84.34" y="-47.81"/><use href="#Z" x="22.19"/><use href="#K" x="62.15" y="-42.28"/><use href="#a"/><use href="#b"/><use href="#c"/><use href="#K" x="89.86" y="-20.18"/><use href="#K" x="89.86" y="-42.28"/><use href="#V" x="164.27"/><use href="#d"/><use href="#e"/><use href="#V" x="186.46"/><path d="M231 81.24v-5.53h-5.53v5.53 5.52 5.52H231v-5.52-5.52z"/><use href="#d" x="22.19"/><use href="#e" x="22.19"/><use href="#e" y="27.63"/><use href="#a" x="62.15" y="69.91"/><use href="#f"/><path d="M214.42 119.92v-16.58h5.53v5.53h5.52l5.53.04v5.48h-11.01v5.53h-5.56-.01z"/><use href="#g"/><use href="#g" y="-22.1"/></g><g class="_zy0 secondary1Stroke"><use href="#h"/><path d="M197.76 27.9h5.52v-5.52h-5.52-5.52v5.52h5.52z"/><use href="#i"/><use href="#B" x="186.46"/><path d="M225.47 11.33v5.52 5.53H231v-5.53-5.52V5.8h-5.53v5.53z"/><use href="#e" x="22.19" y="-47.81"/><use href="#i" x="22.19"/><path d="M197.76 27.91h-5.52v5.52h5.52 5.52v-5.52h-5.52z"/><use href="#a" x="62.15"/><use href="#f" y="-69.91"/><path d="M225.47 33.43H231v-5.52h-5.53-5.52v5.52h-5.53v16.58h.01 5.52v5.52h5.52H231v-5.52h-5.53-5.48v-5.53H231V39l-5.53-.04h-5.52v-5.53h5.52z"/><use href="#j"/><use href="#k"/><use href="#l"/><use href="#I" x="84.34"/><use href="#m"/><use href="#J" x="84.34"/><use href="#l" x="22.19"/><use href="#T" x="62.15" y="69.91"/><use href="#a" y="69.91"/><use href="#b" y="69.91"/><use href="#n"/></g><g class="_w0v primary1Stroke"><use href="#B" x="226.43"/><use href="#D" x="226.43"/><use href="#E" x="226.43"/><use href="#B" x="248.62"/><use href="#C" x="248.62"/><use href="#D" x="248.62"/><use href="#E" x="248.62"/><use href="#D" x="226.43" y="5.53"/><use href="#F" x="248.62"/><use href="#o"/><use href="#H" x="248.62"/><use href="#K" x="214.18" y="-20.18"/><use href="#K" x="214.18" y="-42.28"/><use href="#I" x="248.62"/><use href="#J" x="248.62"/><use href="#K" x="248.62"/><use href="#I" x="270.81"/><use href="#V" x="327.35"/><use href="#J" x="270.81"/><use href="#K" x="270.81"/><use href="#K" x="248.62" y="27.63"/><use href="#a" x="186.47" y="69.91"/><use href="#b" x="186.47" y="69.91"/><path d="M338.74 119.92v-16.58h5.53v5.53h5.52l5.52.04v5.48h-11v5.53h-5.57 0z"/><use href="#K" x="276.33" y="49.73"/><use href="#K" x="276.33" y="27.63"/></g><g class="_zy0 secondary1Stroke"><use href="#O" x="248.62"/><use href="#P" x="248.62"/><use href="#Q" x="248.62"/><use href="#C" x="294.2"/><use href="#p"/><use href="#K" x="270.81" y="-47.81"/><use href="#Q" x="270.81"/><use href="#T" x="248.62"/><use href="#a" x="186.47"/><use href="#b" x="186.47"/><path d="M349.79 33.43h5.52v-5.52h-5.52-5.53v5.52h-5.52v16.58h0 5.52v5.52h5.53 5.52v-5.52h-5.52-5.48v-5.53h11V39l-5.52-.04h-5.52v-5.53h5.52z"/><use href="#q"/><use href="#r"/><use href="#X" x="226.43"/><use href="#V" x="248.62"/><use href="#W" x="248.62"/><use href="#L" x="186.47"/><use href="#X" x="248.62"/><use href="#s"/><use href="#F" x="248.62" y="69.91"/><use href="#o" y="69.91"/><path d="M287.64 103.34h5.52v-5.52h-5.52-5.53v5.52h-5.52v16.58h0 5.52v5.52h5.53 5.52v-5.52h-5.52-5.48v-5.53h11v-5.48l-5.52-.04h-5.53v-5.53h5.53z"/></g><g class="_w0v primary1Stroke"><use href="#C" x="334.16"/><use href="#K" x="310.77" y="-47.81"/><use href="#Z" x="248.62"/><use href="#C" x="356.35"/><use href="#B" x="389.5"/><use href="#K" x="332.96" y="-47.81"/><use href="#Z" x="270.81"/><use href="#K" x="310.77" y="-42.28"/><use href="#a" x="248.62"/><use href="#b" x="248.62"/><path d="M400.89 50.01V33.43h5.53v5.53h5.52l5.53.04v5.48h-11.01v5.53h-5.57 0z"/><use href="#D" x="378.45" y="27.63"/><use href="#D" x="378.45" y="5.53"/><use href="#V" x="412.89"/><use href="#L" x="350.74"/><use href="#D" x="412.89" y="47.81"/><use href="#V" x="435.08"/><use href="#I" x="411.69"/><use href="#L" x="372.93"/><use href="#D" x="435.08" y="47.81"/><use href="#D" x="412.89" y="75.44"/><use href="#F" x="435.08" y="69.91"/><use href="#o" x="186.46" y="69.91"/><use href="#N" x="372.93"/><use href="#D" x="440.6" y="97.54"/><use href="#D" x="440.6" y="75.44"/></g><g class="_zy0 secondary1Stroke"><use href="#h" x="248.62"/><path d="M446.38 27.9h5.53v-5.52h-5.53-5.52v5.52h5.52z"/><use href="#S" x="350.74"/><use href="#B" x="435.08"/><use href="#R" x="372.93"/><use href="#D" x="435.08"/><use href="#S" x="372.93"/><use href="#s" x="186.46" y="-69.91"/><use href="#F" x="435.08"/><use href="#o" x="186.46"/><path d="M474.09 33.43h5.53v-5.52h-5.53-5.52v5.52h-5.52v16.58h0 5.52v5.52h5.52 5.53v-5.52h-5.53-5.47v-5.53h11V39l-5.52-.04h-5.53v-5.53h5.52z"/><use href="#j" x="248.62"/><use href="#k" x="248.62"/><use href="#l" x="248.62"/><use href="#I" x="332.96"/><use href="#m" x="248.62"/><use href="#J" x="332.96"/><use href="#l" x="270.81"/><use href="#T" x="310.77" y="69.91"/><use href="#a" x="248.62" y="69.91"/><use href="#b" x="248.62" y="69.91"/><path d="M411.94 103.34h5.53v-5.52h-5.53-5.52v5.52h-5.53v16.58h0 5.53v5.52h5.52 5.53v-5.52h-5.53-5.48v-5.53h11.01v-5.48l-5.53-.04h-5.52v-5.53h5.52z"/></g><g class="_w0v primary1Stroke"><use href="#C" x="458.48"/><use href="#K" x="435.09" y="-47.81"/><use href="#Z" x="372.94"/><use href="#C" x="480.67"/><use href="#B" x="513.82"/><use href="#K" x="457.28" y="-47.81"/><use href="#Z" x="395.13"/><use href="#K" x="435.09" y="-42.28"/><use href="#a" x="372.94"/><use href="#b" x="372.94"/><use href="#c" x="372.94"/><use href="#K" x="462.8" y="-20.18"/><use href="#K" x="462.8" y="-42.28"/><use href="#I" x="497.24"/><use href="#J" x="497.24"/><use href="#K" x="497.24"/><use href="#I" x="519.43"/><use href="#V" x="575.97"/><use href="#J" x="519.43"/><use href="#K" x="519.43"/><use href="#K" x="497.24" y="27.63"/><use href="#a" x="435.09" y="69.91"/><use href="#b" x="435.09" y="69.91"/><path d="M587.36 119.92v-16.58h5.53v5.53h5.52l5.53.04v5.48h-11.01v5.53h-5.57 0z"/><use href="#D" x="564.92" y="97.54"/><use href="#D" x="564.92" y="75.44"/></g><g class="_zy0 secondary1Stroke"><use href="#O" x="497.24"/><use href="#P" x="497.24"/><use href="#Q" x="497.24"/><use href="#C" x="542.82"/><use href="#p" x="248.62"/><use href="#K" x="519.43" y="-47.81"/><use href="#Q" x="519.43"/><use href="#T" x="497.24"/><use href="#a" x="435.09"/><use href="#b" x="435.09"/><path d="M598.41 33.43h5.53v-5.52h-5.53-5.52v5.52h-5.53v16.58h0 5.53v5.52h5.52 5.53v-5.52h-5.53-5.48v-5.53h11.01V39l-5.53-.04h-5.52v-5.53h5.52z"/><use href="#j" x="372.94"/><use href="#k" x="372.94"/><use href="#l" x="372.94"/><use href="#I" x="457.28"/><use href="#m" x="372.94"/><use href="#J" x="457.28"/><use href="#l" x="395.13"/><use href="#T" x="435.09" y="69.91"/><use href="#a" x="372.94" y="69.91"/><use href="#b" x="372.94" y="69.91"/><use href="#n" x="372.94"/></g><g class="_w0v primary1Stroke"><use href="#B" x="599.36"/><use href="#D" x="599.36"/><use href="#E" x="599.36"/><use href="#B" x="621.55"/><use href="#C" x="621.55"/><use href="#D" x="621.55"/><use href="#E" x="621.55"/><use href="#D" x="599.36" y="5.53"/><use href="#F" x="621.55"/><use href="#o" x="372.93"/><use href="#H" x="621.55"/><use href="#D" x="627.07" y="27.63"/><use href="#D" x="627.07" y="5.53"/><use href="#V" x="661.51"/><path d="M689.48 92.28v5.53H695h5.53v-5.53H695h-5.52z"/><use href="#t"/><use href="#V" x="683.7"/><use href="#I" x="660.31"/><use href="#L" x="621.55"/><use href="#D" x="683.7" y="47.81"/><use href="#t" y="27.63"/><use href="#F" x="683.7" y="69.91"/><use href="#u"/><use href="#N" x="621.55"/><use href="#K" x="649.26" y="49.73"/><use href="#K" x="649.26" y="27.63"/></g><g class="_zy0 secondary1Stroke"><use href="#h" x="497.24"/><path d="M695 27.9h5.53v-5.52H695h-5.52v5.52H695zm5.53-22.1V.28H695h-5.52V5.8H695h5.53z"/><use href="#B" x="683.7"/><use href="#R" x="621.55"/><use href="#D" x="683.7"/><use href="#S" x="621.55"/><path d="M695 27.91h-5.52v5.52H695h5.53v-5.52H695z"/><use href="#F" x="683.7"/><use href="#u" y="-69.91"/><use href="#U" x="621.55"/><use href="#q" x="372.93"/><use href="#r" x="372.93"/><use href="#X" x="599.36"/><use href="#V" x="621.55"/><use href="#W" x="621.55"/><use href="#L" x="559.4"/><use href="#X" x="621.55"/><use href="#s" x="372.93"/><use href="#F" x="621.55" y="69.91"/><use href="#o" x="372.93" y="69.91"/><use href="#Y" x="621.55"/></g><g class="_w0v primary1Stroke"><use href="#C" x="707.1"/><use href="#K" x="683.71" y="-47.81"/><use href="#Z" x="621.56"/><use href="#C" x="729.29"/><use href="#B" x="762.44"/><use href="#K" x="705.9" y="-47.81"/><use href="#Z" x="643.75"/><use href="#K" x="683.71" y="-42.28"/><use href="#a" x="621.56"/><use href="#b" x="621.56"/><use href="#c" x="621.56"/><use href="#K" x="711.42" y="-20.18"/><use href="#K" x="711.42" y="-42.28"/></g><g class="_zy0 secondary1Stroke"><use href="#j" x="621.56"/><use href="#k" x="621.56"/><use href="#l" x="621.56"/><use href="#I" x="705.9"/><use href="#m" x="621.56"/><use href="#J" x="705.9"/><use href="#l" x="643.75"/><use href="#T" x="683.71" y="69.91"/><use href="#a" x="621.56" y="69.91"/><use href="#b" x="621.56" y="69.91"/><use href="#n" x="621.56"/></g></g><defs><path id="B" d="M27.97 11.33V5.8h-5.53v5.53 5.52 5.53h5.53v-5.53-5.52z"/><path id="C" d="M44.54 11.33V5.8h-5.52v5.53 5.52 5.53h5.52v-5.53-5.52z"/><path id="D" d="M27.97 22.38v5.52h5.52 5.53v-5.52h-5.53-5.52z"/><path id="E" d="M27.97.28V5.8h5.52 5.53V.28h-5.53-5.52z"/><path id="F" d="M16.83 38.96v5.52h5.52v-5.52-5.53h-5.52v5.53z"/><path id="G" d="M5.78 44.48v-5.52-5.53H.25v5.53 5.52 5.53 5.52h5.53v-5.52h5.52 5.53v-5.53H11.3 5.78z"/><path id="H" d="M27.97 50.01V33.43h5.52v5.53h5.53l5.52.04v5.48h-11v5.53h-5.57 0z"/><path id="I" d="M67.93 81.24v-5.53h-5.52v5.53 5.52 5.52h5.52v-5.52-5.52z"/><path id="J" d="M67.93 92.28v5.53h5.53 5.52v-5.53h-5.52-5.53z"/><path id="K" d="M67.93 70.19v5.52h5.53 5.52v-5.52h-5.52-5.53z"/><path id="L" d="M90.12 92.28v5.53h5.52 5.53v-5.53h-5.53-5.52z"/><path id="M" d="M67.93 114.39v-5.52-5.53h-5.52v5.53 5.52 5.53 5.52h5.52v-5.52h5.52 5.53v-5.53h-5.53-5.52z"/><path id="N" d="M90.12 119.92v-16.58h5.52v5.53h5.53l5.52.04v5.48h-11v5.53h-5.57 0z"/><path id="O" d="M67.93 16.85v-5.52V5.8h-5.52v5.53 5.52 5.53h5.52v-5.53z"/><path id="P" d="M73.46 27.9h5.52v-5.52h-5.52-5.53v5.52h5.53z"/><path id="Q" d="M78.98 5.8V.28h-5.52-5.53V5.8h5.53 5.52z"/><path id="R" d="M101.17 11.33v5.52 5.53h5.52v-5.53-5.52V5.8h-5.52v5.53z"/><path id="S" d="M101.17 5.8V.28h-5.53-5.52V5.8h5.52 5.53z"/><path id="T" d="M73.46 27.91h-5.53v5.52h5.53 5.52v-5.52h-5.52z"/><path id="U" d="M101.17 33.43h5.52v-5.52h-5.52-5.53v5.52h-5.52v16.58h0 5.52v5.52h5.53 5.52v-5.52h-5.52-5.48v-5.53h11V39l-5.52-.04h-5.53v-5.53h5.53z"/><path id="V" d="M27.97 81.24v-5.53h-5.53v5.53 5.52 5.52h5.53v-5.52-5.52z"/><path id="W" d="M39.02 81.24v5.52 5.52h5.52v-5.52-5.52-5.53h-5.52v5.53z"/><path id="X" d="M39.02 75.71v-5.52h-5.53-5.52v5.52h5.52 5.53z"/><path id="Y" d="M39.01 103.34h5.53v-5.52h-5.53-5.52v5.52h-5.52v16.58h0 5.52v5.52h5.52 5.53v-5.52h-5.53-5.47v-5.53h11v-5.48l-5.52-.04h-5.53v-5.53h5.52z"/><path id="Z" d="M130.08.28V5.8h5.53 5.52V.28h-5.52-5.53z"/><path id="a" d="M141.13 38.96v5.52h5.53v-5.52-5.53h-5.53v5.53z"/><path id="b" d="M130.08 44.48v-5.52-5.53h-5.52v5.53 5.52 5.53 5.52h5.52v-5.52h5.53 5.52v-5.53h-5.52-5.53z"/><path id="c" d="M152.27 50.01V33.43h5.53v5.53h5.52l5.52.04v5.48h-11v5.53h-5.57 0z"/><path id="d" d="M192.24 92.28v5.53h5.52 5.52v-5.53h-5.52-5.52z"/><path id="e" d="M192.24 70.19v5.52h5.52 5.52v-5.52h-5.52-5.52z"/><path id="f" d="M192.24 114.39v-5.52-5.53h-5.53v5.53 5.52 5.53 5.52h5.53v-5.52h5.52 5.52v-5.53h-5.52-5.52z"/><path id="g" d="M219.95 119.92v5.52h5.52H231v-5.52h-5.53-5.52z"/><path id="h" d="M192.24 16.85v-5.52V5.8h-5.53v5.53 5.52 5.53h5.53v-5.53z"/><path id="i" d="M203.28 5.8V.28h-5.52-5.52V5.8h5.52 5.52z"/><path id="j" d="M130.08 86.76v-5.52-5.53h-5.52v5.53 5.52 5.52h5.52v-5.52z"/><path id="k" d="M135.61 97.81h5.52v-5.53h-5.52-5.53v5.53h5.53z"/><path id="l" d="M141.13 75.71v-5.52h-5.52-5.53v5.52h5.53 5.52z"/><path id="m" d="M163.32 81.24v5.52 5.52h5.53v-5.52-5.52-5.53h-5.53v5.53z"/><path id="n" d="M163.32 103.34h5.52v-5.52h-5.52-5.53v5.52h-5.52v16.58h0 5.52v5.52h5.53 5.52v-5.52h-5.52-5.48v-5.53h11v-5.48l-5.52-.04h-5.52v-5.53h5.52z"/><path id="o" d="M254.4 44.48v-5.52-5.53h-5.53v5.53 5.52 5.53 5.52h5.53v-5.52h5.52 5.53v-5.53h-5.53-5.52z"/><path id="p" d="M349.79 11.33v5.52 5.53h5.53v-5.53-5.52V5.8h-5.53v5.53z"/><path id="q" d="M254.4 86.76v-5.52-5.53h-5.53v5.53 5.52 5.52h5.53v-5.52z"/><path id="r" d="M259.92 97.81h5.53v-5.53h-5.53-5.52v5.53h5.52z"/><path id="s" d="M259.92 97.82h-5.52v5.52h5.52 5.53v-5.52h-5.53z"/><path id="t" d="M689.48 70.19v5.52H695h5.53v-5.52H695h-5.52z"/><path id="u" d="M689.48 114.39v-5.52-5.53h-5.53v5.53 5.52 5.53 5.52h5.53v-5.52H695h5.53v-5.53H695h-5.52z"/></defs></pattern></defs><rect width="100%" height="100%" x="0" transform="scale(1.025)" y="0" fill="url(#polka-dots)"/><rect width="100%" height="100%" x="0" transform="scale(1.025)" y="139.85" fill="url(#polka-dots)"/><rect width="100%" height="100%" x="0" transform="scale(1.025)" y="-139.85" fill="url(#polka-dots)"/><rect width="100%" height="100%" x="0" transform="scale(1.025)" y="279.7" fill="url(#polka-dots)"/><rect width="100%" height="100%" x="0" transform="scale(1.025)" y="-279.7" fill="url(#polka-dots)"/><rect width="100%" height="100%" x="0" transform="scale(1.025)" y="419.54999999999995" fill="url(#polka-dots)"/><rect width="100%" height="100%" x="0" transform="scale(1.025)" y="-419.54999999999995" fill="url(#polka-dots)"/><rect width="100%" height="100%" x="0" transform="scale(1.025)" y="559.4" fill="url(#polka-dots)"/><rect width="100%" height="100%" x="0" transform="scale(1.025)" y="-559.4" fill="url(#polka-dots)"/><rect width="100%" height="100%" x="0" transform="scale(1.025)" y="699.25" fill="url(#polka-dots)"/><rect width="100%" height="100%" x="0" transform="scale(1.025)" y="-699.25" fill="url(#polka-dots)"/><rect width="100%" height="100%" x="0" transform="scale(1.025)" y="839.0999999999999" fill="url(#polka-dots)"/><rect width="100%" height="100%" x="0" transform="scale(1.025)" y="-839.0999999999999" fill="url(#polka-dots)"/><rect width="100%" height="100%" x="0" transform="scale(1.025)" y="978.9499999999999" fill="url(#polka-dots)"/><rect width="100%" height="100%" x="0" transform="scale(1.025)" y="-978.9499999999999" fill="url(#polka-dots)"/><rect width="100%" height="100%" x="0" transform="scale(1.025)" y="1118.8" fill="url(#polka-dots)"/><rect width="100%" height="100%" x="0" transform="scale(1.025)" y="-1118.8" fill="url(#polka-dots)"/><rect width="100%" height="100%" x="0" transform="scale(1.025)" y="1258.6499999999999" fill="url(#polka-dots)"/><rect width="100%" height="100%" x="0" transform="scale(1.025)" y="-1258.6499999999999" fill="url(#polka-dots)"/><rect width="100%" height="100%" x="0" transform="scale(1.025)" y="1398.5" fill="url(#polka-dots)"/><rect width="100%" height="100%" x="0" transform="scale(1.025)" y="-1398.5" fill="url(#polka-dots)"/><rect width="100%" height="100%" x="0" transform="scale(1.025)" y="1538.35" fill="url(#polka-dots)"/><rect width="100%" height="100%" x="0" transform="scale(1.025)" y="-1538.35" fill="url(#polka-dots)"/><rect width="100%" height="100%" x="0" transform="scale(1.025)" y="1678.1999999999998" fill="url(#polka-dots)"/><rect width="100%" height="100%" x="0" transform="scale(1.025)" y="-1678.1999999999998" fill="url(#polka-dots)"/><rect width="100%" height="100%" x="0" transform="scale(1.025)" y="1818.05" fill="url(#polka-dots)"/><rect width="100%" height="100%" x="0" transform="scale(1.025)" y="-1818.05" fill="url(#polka-dots)"/><rect width="100%" height="100%" x="0" transform="scale(1.025)" y="1957.8999999999999" fill="url(#polka-dots)"/></svg><rect width="100%" height="100%" fill="none" stroke="black" stroke-width="30px" /><svg id="EYE-2-SUSS" xmlns="http://www.w3.org/2000/svg" viewBox="0 0 873 480"><defs><style>._h6j{stroke-miterlimit:10;stroke-width:.5px}</style></defs><g id="EYE-2-BASE"><path class="_h6j primary1Stroke" d="M326.3,189.39h-10.14v-10.3h-12.19v-.09h8.38v-.17h5.92v-1.66h8.49v-33.01h-33.01v1.66h-8.49v.17h-5.92v1.83h-14.41v3.1h-8.27v.18h-5.85v2.37h-8.45v1.49h-5.55v3.73h-7.62v11.85h-1.45v-26.36h-33.01v1.66h-8.49v.17h-5.92v1.83h-14.41v3.1h-8.27v.18h-5.85v2.37h-8.45v1.49h-5.55v3.73h-7.62v11.85h-13.16v33.01h.52v14.51h.52v14.51h24.41v9.67h7.56v10.26h-6.66v1.49h-5.55v3.73h-7.62v11.85h-13.16v33.01h.52v14.51h.52v14.51h24.41v9.67h33.01v-4.12h5.77v-14.15h1.82v-14.74h1.09v2.88h10.14v4.92h-.26v12.43h-7.51v33.01h33.01v-12.43h7.51v-13.86h3.91v-3.61h10.54v9.67h33.01v-4.12h5.77v-8.66h5.28v-12.43h7.51v-4.92h.26v4.92h-.26v12.43h-7.51v33.01h33.01v-12.43h7.51v-13.86h3.91v-33.01h-3.65v-13.76h-10.14v-10.3h-12.19v-.09h8.38v-.17h5.92v-1.66h8.49v-33.01h-.72v-7.02h3.91v-33.01h-3.65v-13.76ZM216.03,178.99h-2.7v.09h-8.38v-.09h8.38v-.17h2.7v.17Z"/><polygon class="_h6j primary1Stroke" points="759.82 177.4 759.82 175.83 773.96 175.83 773.96 174.26 788.1 174.26 788.1 141.93 785.85 141.93 785.85 138.78 772.27 138.78 772.27 134.53 758.7 134.53 758.7 130.28 745.12 130.28 745.12 126.03 731.3 126.03 731.3 122.66 717.45 122.66 717.45 119.41 703.6 119.41 703.6 116.16 693.55 116.16 693.55 115.42 661.22 115.42 661.22 130.28 648.12 130.28 648.12 126.03 634.3 126.03 634.3 122.66 620.45 122.66 620.45 119.41 606.6 119.41 606.6 116.16 596.55 116.16 596.55 115.42 564.22 115.42 564.22 147.75 572.67 147.75 572.67 159.2 574 159.2 574 162.6 568.31 162.6 568.31 194.94 572.89 194.94 572.89 208.34 578.03 208.34 578.03 212.42 564.22 212.42 564.22 244.75 572.67 244.75 572.67 256.2 574 256.2 574 259.6 568.31 259.6 568.31 291.94 572.89 291.94 572.89 305.34 578.03 305.34 578.03 318.61 585.22 318.61 585.22 330.65 588.27 330.65 588.27 344.31 599.36 344.31 599.36 346.93 631.7 346.93 631.7 334.37 637.95 334.37 637.95 327.43 660.52 327.43 660.52 314.59 664.03 314.59 675.03 314.59 675.03 318.61 682.22 318.61 682.22 330.65 685.27 330.65 685.27 344.31 696.36 344.31 696.36 346.93 728.7 346.93 728.7 334.37 734.95 334.37 734.95 327.43 757.52 327.43 757.52 295.1 750.35 295.1 750.35 283.04 741.04 283.04 741.04 275.97 745.68 275.97 745.68 274.4 759.82 274.4 759.82 272.83 773.96 272.83 773.96 271.26 788.1 271.26 788.1 238.93 785.85 238.93 785.85 235.78 772.27 235.78 772.27 231.53 758.7 231.53 758.7 227.28 757.52 227.28 757.52 198.1 755.77 198.1 755.77 177.4 759.82 177.4"/><path class="_h6j primary1Stroke" d="M708.2,200.51v-13.38h-4.57v-13.38h-4.57v-13.38h-4.57v-13.38h-8.86v-10.39h-11v-8.89h-12.37v-4.49h4.34v-.79h8.03v5.29h11v8.89h8.86v10.39h4.57v13.38h4.57v13.38h4.57v13.38h4.57v13.38h32.14v-32.14h-4.57v-13.38h-4.57v-13.38h-4.57v-13.38h-4.57v-13.38h-8.86v-10.39h-11v-8.89h-12.37v-5.29h-14.13v-.68h-32.14v1.47h-13.68v6.29h-7.12v-.08h-10.31v-9.3h-13.72v-3.45h-13.51v-1.17h-32.14v5.82h-12.89v1.89h-6.74v4.28h-5.94v2.01h-1.18v-.08h-10.31v-9.3h-13.72v-3.45h-13.51v-1.17h-32.14v5.82h-12.89v4.97h-31.05v2.17h-13.98v2.17h-13.98v4.87h-13.15v2.49h-10.32v-5.9h-12.87v-5.81h-32.14v2.17h-13.98v2.17h-13.98v4.87h-13.15v6.04h-12.79v5.15h-13.08v2.77h-8.29v-2.31h-12.46v-6.7h-32.14v4.04h-10.95v9.87h-10.13v9.87h-10.13v9.87h-10.13v8.81h-10.96v7.5h-11.99v7.5h-6.95v-3.35h-32.14v32.14h4.87v13.28h27.28v51.01h4.87v3.35h-4.87v-3.35h-32.14v32.14h4.87v13.28h32.14v-2.43h10.25v-7.5h11.99v-7.5h11.99v-7.5h11.99v-7.2h13.2v18.86h4.87v13.28h32.14v-2.43h10.25v-7.5h11.99v-7.5h11.99v-7.5h11.99v-8.81h10.96v-9.87h10.13v-9.87h10.13v-9.87h1.39v2.66h12.7v5.08h10.94v-3.58h6.64v-14.73h12.06v-9.78h36.96v2.66h15.84v5.29h15.38v5.29h15.38v5.29h9.29v-4.7h5.97v-4.07h12.06v-9.78h36.96v2.66h15.84v5.29h15.38v5.29h10.22v-1.45h11.39v-6.46h4.6v-2.01h6.73v-4.28h5.94v-.79h8.04v5.29h11v8.89h8.86v10.39h4.57v13.38h4.57v13.38h4.57v13.38h4.57v13.38h32.14v-32.14h-4.57v-13.38h-4.57v-13.38h-4.57v-9.73h4.57v9.73h4.57v13.38h4.57v13.38h55.15v5.38h4.57v13.38h4.57v13.38h32.14v-32.14h-4.57v-13.38h-4.57v-13.38h-4.57v-13.38h-4.57v-13.38h-8.86v-10.39h-5.01v-.36h-4.57ZM194.03,174.1h-2.24v8.81h-10.96v7.5h-11.99v4.16h-11.99v-4.16h11.99v-7.5h11.99v-8.81h10.96v-9.87h2.24v9.87ZM212.05,162.43h-10.13v-8.07h10.13v-9.87h1.39v2.66h8.74v7.21h-10.13v8.07ZM245.12,254.71h-11.99v7.5h-6.95v-3.35h-5.04v-4.16h11.99v-6.04h11.99v6.04ZM378.71,199.79h-2.53v2.49h-10.32v-2.49h10.32v-3.41h2.53v3.41ZM532.08,193.78h-1.18v-.08h-10.16v-1.92h10.16v1.92h1.18v.08Z"/><rect class="_h6j primary1Stroke" x="309.62" y="159.21" width="1.62" height="1.62"/><rect class="_h6j primary1Stroke" x="116.74" y="157.03" width="1.62" height="1.62"/><rect class="_h6j primary1Stroke" x="321.44" y="205.59" width="1.62" height="1.62"/><rect class="_h6j primary1Stroke" x="371.48" y="95.94" width="1.62" height="1.62"/><rect class="_h6j primary1Stroke" x="395.9" y="111.47" width="1.62" height="1.62"/><rect class="_h6j primary1Stroke" x="287.57" y="221.15" width="1.62" height="1.62"/><rect class="_h6j primary1Stroke" x="282.22" y="217.43" width="1.62" height="1.62"/><rect class="_h6j primary1Stroke" x="316.89" y="157.03" width="1.62" height="1.62"/><rect class="_h6j primary1Stroke" x="264.95" y="194.91" width="1.62" height="1.62"/><rect class="_h6j primary1Stroke" x="502.46" y="135.34" width="1.62" height="1.62"/><rect class="_h6j primary1Stroke" x="498.71" y="151.02" width="1.62" height="1.62"/><rect class="_h6j primary1Stroke" x="637.22" y="173.43" width="1.62" height="1.62"/><rect class="_h6j primary1Stroke" x="702.19" y="125.81" width="1.62" height="1.62"/><rect class="_h6j primary1Stroke" x="617.89" y="240.12" width="1.62" height="1.62"/><rect class="_h6j primary1Stroke" x="654.88" y="140.95" width="1.62" height="1.62"/><rect class="_h6j primary1Stroke" x="612.72" y="127.13" width="1.62" height="1.62"/><rect class="_h6j primary1Stroke" x="626.99" y="92.05" width="1.62" height="1.62"/><rect class="_h6j primary1Stroke" x="749.05" y="239.33" width="1.62" height="1.62"/><rect class="_h6j primary1Stroke" x="761.16" y="183.88" width="1.62" height="1.62"/><rect class="_h6j primary1Stroke" x="780.37" y="198.52" width="1.62" height="1.62"/><rect class="_h6j primary1Stroke" x="766.66" y="214.64" width="1.62" height="1.62"/><rect class="_h6j primary1Stroke" x="768.19" y="162.77" width="1.62" height="1.62"/><rect class="_h6j primary1Stroke" x="464.39" y="205.02" width="1.62" height="1.62"/><rect class="_h6j primary1Stroke" x="336.85" y="253.18" width="1.62" height="1.62"/><rect class="_h6j primary1Stroke" x="591.28" y="269.43" width="1.62" height="1.62"/><rect class="_h6j primary1Stroke" x="616.05" y="318.11" width="1.62" height="1.62"/><rect class="_h6j primary1Stroke" x="647.76" y="342.26" width="1.62" height="1.62"/><rect class="_h6j primary1Stroke" x="605.13" y="318.11" width="1.62" height="1.62"/><rect class="_h6j primary1Stroke" x="458.6" y="177.25" width="1.62" height="1.62"/><rect class="_h6j primary1Stroke" x="587.04" y="277.92" width="1.62" height="1.62"/><rect class="_h6j primary1Stroke" x="646.13" y="335.38" width="1.62" height="1.62"/><rect class="_h6j primary1Stroke" x="599.88" y="301.08" width="1.62" height="1.62"/><rect class="_h6j primary1Stroke" x="497.45" y="141.51" width="1.62" height="1.62"/><rect class="_h6j primary1Stroke" x="531.15" y="120.13" width="1.62" height="1.62"/><rect class="_h6j primary1Stroke" x="626.18" y="78.74" width="1.62" height="1.62"/><rect class="_h6j primary1Stroke" x="652.18" y="166.8" width="1.62" height="1.62"/><rect class="_h6j primary1Stroke" x="708.43" y="133.43" width="1.62" height="1.62"/><rect class="_h6j primary1Stroke" x="470.05" y="199.73" width="1.62" height="1.62"/><rect class="_h6j primary1Stroke" x="555.9" y="243.53" width="1.62" height="1.62"/><rect class="_h6j primary1Stroke" x="566.56" y="249.48" width="1.62" height="1.62"/><rect class="_h6j primary1Stroke" x="658.95" y="231.21" width="1.62" height="1.62"/><rect class="_h6j primary1Stroke" x="722.65" y="322.86" width="1.62" height="1.62"/><rect class="_h6j primary1Stroke" x="761.97" y="282.52" width="1.62" height="1.62"/><rect class="_h6j primary1Stroke" x="768.28" y="281.71" width="1.62" height="1.62"/><rect class="_h6j primary1Stroke" x="666.84" y="239.33" width="1.62" height="1.62"/><rect class="_h6j primary1Stroke" x="452.78" y="177.21" width="1.62" height="1.62"/><rect class="_h6j primary1Stroke" x="261.79" y="167.38" width="1.62" height="1.62"/><rect class="_h6j primary1Stroke" x="325.17" y="229.26" width="3.24" height="3.24"/><rect class="_h6j primary1Stroke" x="329.95" y="257.51" width="3.24" height="3.24"/><rect class="_h6j primary1Stroke" x="272.7" y="181.92" width="3.24" height="3.24"/><rect class="_h6j primary1Stroke" x="301.24" y="142.31" width="3.24" height="3.24"/><rect class="_h6j primary1Stroke" x="241.99" y="322.46" width="1.62" height="1.62"/><rect class="_h6j primary1Stroke" x="235.36" y="337.79" width="1.62" height="1.62"/><rect class="_h6j primary1Stroke" x="234.55" y="345.99" width="1.62" height="1.62"/><rect class="_h6j primary1Stroke" x="177.36" y="329.04" width="1.62" height="1.62"/><rect class="_h6j primary1Stroke" x="220.66" y="325.5" width="1.62" height="1.62"/><rect class="_h6j primary1Stroke" x="205.07" y="345.17" width="3.24" height="3.24"/><rect class="_h6j primary1Stroke" x="214.72" y="326.52" width="3.24" height="3.24"/><rect class="_h6j primary1Stroke" x="479.47" y="153.38" width="3.24" height="3.24"/><rect class="_h6j primary1Stroke" x="550.59" y="238.38" width="3.24" height="3.24"/><rect class="_h6j primary1Stroke" x="608.16" y="115.97" width="3.24" height="3.24"/><rect class="_h6j primary1Stroke" x="633.98" y="78.74" width="3.24" height="3.24"/><rect class="_h6j primary1Stroke" x="640.61" y="181.45" width="3.24" height="3.24"/><rect class="_h6j primary1Stroke" x="765.85" y="262.49" width="3.24" height="3.24"/><rect class="_h6j primary1Stroke" x="771.49" y="155.21" width="3.24" height="3.24"/><rect class="_h6j primary1Stroke" x="764.23" y="190.15" width="3.24" height="3.24"/><rect class="_h6j primary1Stroke" x="773.11" y="203.4" width="3.24" height="3.24"/><rect class="_h6j primary1Stroke" x="707.11" y="315.24" width="3.24" height="3.24"/><rect class="_h6j primary1Stroke" x="666.03" y="335.38" width="3.24" height="3.24"/><rect class="_h6j primary1Stroke" x="614.77" y="255.89" width="3.24" height="3.24"/><rect class="_h6j primary1Stroke" x="152.7" y="237.92" width="3.24" height="3.24"/><rect class="_h6j primary1Stroke" x="118.36" y="247.05" width="3.24" height="3.24"/><rect class="_h6j primary1Stroke" x="265.31" y="140.23" width="1.98" height="1.98"/><rect class="_h6j primary1Stroke" x="156.14" y="253" width="1.98" height="1.98"/><rect class="_h6j primary1Stroke" x="174.45" y="345.81" width="1.98" height="1.98"/><rect class="_h6j primary1Stroke" x="127.27" y="189.5" width="1.98" height="1.98"/><rect class="_h6j primary1Stroke" x="114.76" y="215.45" width="1.98" height="1.98"/></g></svg><svg id="EYE-2-SUSS" xmlns="http://www.w3.org/2000/svg" viewBox="0 0 873 480" class="showSlide1"><defs><style>._vtc,.cls-2{stroke-miterlimit:10;stroke-width:.5px}</style></defs><g id="EYE-2-FRAME-1"><polygon class="_vtc secondary1Fill" points="671.31 209.32 669.82 209.32 669.82 209.31 669.74 209.31 669.74 209.31 669.82 209.31 669.82 209.31 671.31 209.31 671.31 209.32 674.89 209.32 674.89 205.74 673.4 205.74 673.4 205.73 673.32 205.73 673.32 205.7 671.74 205.7 671.74 205.67 671.52 205.67 671.52 204.57 669.4 204.57 669.4 201.45 665.82 201.45 665.82 201.66 664.26 201.66 664.26 201.87 662.7 201.87 662.7 202.08 661.14 202.08 661.14 202.29 659.58 202.29 659.58 202.5 658.66 202.5 658.66 201.45 655.08 201.45 655.08 201.66 653.52 201.66 653.52 201.87 651.96 201.87 651.96 202.08 650.4 202.08 650.4 202.29 648.84 202.29 648.84 202.5 647.28 202.5 647.28 202.71 645.72 202.71 645.72 202.91 644.16 202.91 644.16 203.12 642.6 203.12 642.6 203.33 641.04 203.33 641.04 203.54 639.48 203.54 639.48 203.75 637.92 203.75 637.92 203.96 636.35 203.96 636.35 204.82 635.77 204.82 635.77 204.83 635.13 204.83 635.13 208.41 638.71 208.41 638.71 208.4 639.35 208.4 639.35 208.4 639.86 208.4 639.86 208.4 639.35 208.4 639.35 208.41 638.71 208.41 638.71 211.98 638.71 214.48 637.92 214.48 637.92 214.69 636.35 214.69 636.35 215.56 635.77 215.56 635.77 215.56 635.13 215.56 635.13 219.14 638.71 219.14 638.71 219.14 639.35 219.14 639.35 219.13 639.86 219.13 639.86 219.55 640.11 219.55 640.11 219.59 641.69 219.59 641.69 219.63 641.76 219.63 641.76 219.99 643.34 219.99 643.34 220 644.91 220 644.91 220 646.48 220 646.48 220.01 648.06 220.01 648.06 220.01 649.63 220.01 649.63 220.02 651.21 220.02 651.21 220.02 652.78 220.02 652.78 220.03 654.36 220.03 654.36 220.03 655.93 220.03 655.93 220.04 657.51 220.04 657.51 220.04 659.08 220.04 659.08 220.05 660.58 220.05 660.58 220.05 664.16 220.05 664.16 220.03 665.09 220.03 665.09 220.03 666.67 220.03 666.67 220.04 668.24 220.04 668.24 220.04 669.82 220.04 669.82 220.05 671.31 220.05 671.31 220.05 674.89 220.05 674.89 216.47 673.4 216.47 673.4 216.47 673.32 216.47 673.32 216.44 671.74 216.44 671.74 216.4 671.52 216.4 671.52 215.3 671.31 215.3 671.31 212.89 671.31 209.32"/><polygon class="_vtc secondary1Fill" points="246 204.02 244.43 204.02 244.43 203.92 242.86 203.92 242.86 203.81 241.29 203.81 241.29 203.71 239.72 203.71 239.72 203.6 238.15 203.6 238.15 203.49 236.58 203.49 236.58 203.39 235.01 203.39 235.01 200.16 231.43 200.16 231.43 200.26 229.86 200.26 229.86 200.36 228.28 200.36 228.28 200.46 226.71 200.46 226.71 200.57 225.14 200.57 225.14 200.67 224.27 200.67 224.27 200.16 220.69 200.16 220.69 200.26 219.12 200.26 219.12 200.36 217.55 200.36 217.55 200.46 215.98 200.46 215.98 200.57 214.41 200.57 214.41 200.67 212.84 200.67 212.84 200.77 211.26 200.77 211.26 200.87 209.69 200.87 209.69 200.97 208.12 200.97 208.12 201.08 206.55 201.08 206.55 201.18 204.98 201.18 204.98 201.28 203.41 201.28 203.41 201.38 201.84 201.38 201.84 201.48 200.27 201.48 200.27 201.59 198.69 201.59 198.69 201.69 197.12 201.69 197.12 203.26 195.79 203.26 195.79 203.4 194.22 203.4 194.22 206.98 194.25 206.98 194.25 207.06 195.83 207.06 195.83 207.08 197.4 207.08 197.4 207.11 197.8 207.11 197.8 210.55 197.8 212.42 197.12 212.42 197.12 214 195.79 214 195.79 214.13 194.22 214.13 194.22 217.71 194.25 217.71 194.25 217.79 195.83 217.79 195.83 217.82 197.4 217.82 197.4 217.84 198.98 217.84 198.98 217.87 200.55 217.87 200.55 217.89 202.13 217.89 202.13 217.92 203.7 217.92 203.7 217.94 205.28 217.94 205.28 217.97 206.85 217.97 206.85 217.99 208.42 217.99 208.42 218.02 210 218.02 210 218.04 211.57 218.04 211.57 218.07 213.15 218.07 213.15 218.09 214.72 218.09 214.72 218.12 216.3 218.12 216.3 218.14 217.87 218.14 217.87 218.17 219.44 218.17 219.44 218.19 221.02 218.19 221.02 218.22 222.59 218.22 222.59 218.24 224.17 218.24 224.17 218.27 225.74 218.27 225.74 218.29 227.32 218.29 227.32 218.32 228.89 218.32 228.89 218.34 230.47 218.34 230.47 218.37 232.04 218.37 232.04 218.39 235.62 218.39 235.62 218.27 236.48 218.27 236.48 218.29 238.05 218.29 238.05 218.32 239.63 218.32 239.63 218.34 241.2 218.34 241.2 218.37 242.78 218.37 242.78 218.39 246.35 218.39 246.35 214.82 246 214.82 246 214.76 244.43 214.76 244.43 214.65 242.86 214.65 242.86 214.55 242.78 214.55 242.78 211.24 242.78 207.66 242.42 207.66 242.42 207.63 242.78 207.63 242.78 207.66 246.35 207.66 246.35 204.08 246 204.08 246 204.02"/><path class="cls-2 primary1Stroke" d="M660.59,209.79h-.77v-.3h-.77v-.3h-.77v-.3h-.77v-.3h-.45s.45,0,.45,0h0s.77,0,.77,0v.3h.77v.3h.77v.3h.77v.3h1.89v-1.89h-.77v-.3h-.77v-.3h-.77v-.3h-.77v-.3h-.45v-.56h-.82v-.1h-.82v-.1h-.82v-.1h-1.89v.85h-.22v.3h-.63v-.3h-.45v-.56h-.82v-.1h-.82v-.1h-.82v-.1h-1.89v.85h-.22v1.89h1.89v-.02h.13s.1.01.1.01h0s-.22,0-.22,0v2.93h-1.66v.85h-.22v1.89h1.89v-.02h.13s1.13.01,1.13.01h0s.77,0,.77,0v.3h.77v.3h.77v.3h.77v.3h1.89v-1.21h.68s.77,0,.77,0v.3h.77v.3h.77v.3h.77v.3h1.89v-1.89h-.77v-.3h-.77v-.3h-.34v-3.17ZM654.49,212.37h-.14v.3h-.63v-.3h.63s.14,0,.14,0h0Z"/><polygon class="cls-2 primary1Stroke" points="226.32 206.55 226.24 206.55 226.24 205.75 226.17 205.75 226.17 205.03 225.25 205.03 225.25 204.78 224.65 204.78 224.65 204.72 223.96 204.72 223.96 204.07 221.81 204.07 221.81 205.83 221.58 205.83 221.58 206.15 220.04 206.15 220.04 206.22 219.78 206.22 219.78 205.75 219.7 205.75 219.7 205.03 218.79 205.03 218.79 204.78 218.19 204.78 218.19 204.72 217.5 204.72 217.5 204.07 215.34 204.07 215.34 205.83 215.12 205.83 215.12 206.15 213.57 206.15 213.57 206.6 212.74 206.6 212.74 207.4 212.3 207.4 212.3 209.55 214.45 209.55 214.45 208.75 214.68 208.75 214.68 208.93 214.89 208.93 214.89 209.55 214.45 209.55 214.45 211.7 214.45 212.61 213.57 212.61 213.57 213.06 212.74 213.06 212.74 213.86 212.3 213.86 212.3 216.01 214.45 216.01 214.45 215.21 214.68 215.21 214.68 215.4 216.84 215.4 216.84 215.37 218.42 215.37 218.42 215.29 218.76 215.29 218.76 216.01 220.92 216.01 220.92 215.21 221.15 215.21 221.15 215.4 223.3 215.4 223.3 215.37 224.88 215.37 224.88 215.29 226.72 215.29 226.72 213.13 226.32 213.13 226.32 213.01 226.24 213.01 226.24 212.22 226.17 212.22 226.17 211.49 225.25 211.49 225.25 211.24 224.65 211.24 224.65 211.18 224.57 211.18 224.57 210.98 224.57 208.91 224.88 208.91 224.88 208.82 226.72 208.82 226.72 206.67 226.32 206.67 226.32 206.55"/></g></svg><svg id="EYE-2-SUSS" xmlns="http://www.w3.org/2000/svg" viewBox="0 0 873 480" class="showSlide2 altColors"><defs><style>._1x5,.cls-2{stroke-miterlimit:10;stroke-width:.5px}</style></defs><g id="EYE-2-FRAME-2"><polygon class="_1x5 secondary1Fill" points="252.8 203.56 251.62 203.56 251.62 199.88 249.26 199.88 249.26 199.79 246.9 199.79 246.9 199.71 244.54 199.71 244.54 199.62 242.18 199.62 242.18 199.54 239.82 199.54 239.82 199.45 237.46 199.45 237.46 199.37 235.1 199.37 235.1 199.28 232.74 199.28 232.74 199.2 230.38 199.2 230.38 199.11 228.02 199.11 228.02 199.03 225.66 199.03 225.66 198.94 223.3 198.94 223.3 198.86 220.94 198.86 220.94 198.77 218.58 198.77 218.58 198.69 216.22 198.69 216.22 198.6 210.85 198.6 210.85 199.03 209.56 199.03 209.56 198.94 207.2 198.94 207.2 198.86 204.84 198.86 204.84 198.77 202.48 198.77 202.48 198.69 200.12 198.69 200.12 198.6 194.75 198.6 194.75 202.9 192.61 202.9 192.61 202.85 189.63 202.85 189.63 202.8 183.44 202.8 183.44 208.99 186.41 208.99 186.41 209.04 189.39 209.04 189.39 209.1 189.63 209.1 189.63 215.19 189.63 221.38 192.61 221.38 192.61 221.43 195.58 221.43 195.58 221.48 198.55 221.48 198.55 221.53 201.52 221.53 201.52 221.58 202.02 221.58 202.02 221.63 201.52 221.63 201.52 221.58 198.55 221.58 198.55 221.53 195.58 221.53 195.58 221.48 192.61 221.48 192.61 221.43 189.63 221.43 189.63 221.38 183.44 221.38 183.44 227.57 186.41 227.57 186.41 227.62 189.39 227.62 189.39 227.68 192.36 227.68 192.36 227.73 195.33 227.73 195.33 227.78 198.3 227.78 198.3 227.83 201.28 227.83 201.28 227.88 204.25 227.88 204.25 227.93 207.22 227.93 207.22 227.98 210.19 227.98 210.19 228.03 213.17 228.03 213.17 228.08 216.14 228.08 216.14 228.13 219.11 228.13 219.11 228.18 222.08 228.18 222.08 228.23 225.06 228.23 225.06 228.28 228.03 228.28 228.03 228.34 231 228.34 231 228.39 237.19 228.39 237.19 228.13 237.69 228.13 237.69 228.18 240.66 228.18 240.66 228.23 243.64 228.23 243.64 228.28 246.61 228.28 246.61 228.34 249.58 228.34 249.58 228.39 255.77 228.39 255.77 222.19 252.8 222.19 252.8 222.14 249.83 222.14 249.83 222.09 249.58 222.09 249.58 221.35 251.62 221.35 251.62 215.98 249.58 215.98 249.58 209.81 246.61 209.81 246.61 209.76 246.26 209.76 246.26 209.7 246.61 209.7 246.61 209.76 249.58 209.76 249.58 209.81 255.77 209.81 255.77 203.61 252.8 203.61 252.8 203.56"/><polygon class="_1x5 secondary1Fill" points="682.37 204.79 682.62 204.79 682.62 204.75 684.17 204.75 684.17 204.66 685.58 204.66 685.58 204.6 687.13 204.6 687.13 204.53 688.53 204.53 688.53 198.37 682.37 198.37 682.37 198.44 680.96 198.44 680.96 198.5 679.41 198.5 679.41 198.58 678.01 198.58 678.01 198.63 676.46 198.63 676.46 198.73 675.05 198.73 675.05 198.76 673.5 198.76 673.5 198.87 672.1 198.87 672.1 198.89 670.54 198.89 670.54 199.01 670.04 199.01 670.04 198.37 663.87 198.37 663.87 198.44 662.47 198.44 662.47 198.5 660.92 198.5 660.92 198.58 659.51 198.58 659.51 198.63 657.96 198.63 657.96 198.73 656.56 198.73 656.56 198.76 655.01 198.76 655.01 198.87 653.6 198.87 653.6 198.89 652.05 198.89 652.05 199.01 650.65 199.01 650.65 199.01 649.09 199.01 649.09 199.14 646.14 199.14 646.14 199.27 643.18 199.27 643.18 199.4 640.22 199.4 640.22 199.53 637.27 199.53 637.27 199.66 634.31 199.66 634.31 199.79 631.36 199.79 631.36 199.92 628.4 199.92 628.4 200.05 625.44 200.05 625.44 200.18 622.49 200.18 622.49 206.34 628.65 206.34 628.65 206.21 631.61 206.21 631.61 206.08 634.56 206.08 634.56 205.95 637.52 205.95 637.52 205.83 640.48 205.83 640.48 205.75 640.98 205.75 640.98 205.83 640.48 205.83 640.48 205.95 637.52 205.95 637.52 206.08 634.56 206.08 634.56 206.21 631.61 206.21 631.61 206.34 628.65 206.34 628.65 212.51 628.65 218.41 628.4 218.41 628.4 218.54 625.44 218.54 625.44 218.67 622.49 218.67 622.49 224.84 628.65 224.84 628.65 224.71 631.61 224.71 631.61 224.58 634.56 224.58 634.56 224.45 637.52 224.45 637.52 224.32 640.48 224.32 640.48 224.24 640.98 224.24 640.98 224.84 647.15 224.84 647.15 224.71 650.1 224.71 650.1 224.58 653.06 224.58 653.06 224.45 656.01 224.45 656.01 224.32 658.97 224.32 658.97 224.24 663.48 224.24 663.48 224.1 666.44 224.1 666.44 223.96 669.39 223.96 669.39 223.81 672.35 223.81 672.35 223.67 673.75 223.67 673.75 223.67 675.31 223.67 675.31 223.54 676.71 223.54 676.71 223.53 678.26 223.53 678.26 223.42 679.67 223.42 679.67 223.39 681.22 223.39 681.22 223.29 682.62 223.29 682.62 223.24 684.17 223.24 684.17 223.16 685.58 223.16 685.58 223.1 687.13 223.1 687.13 223.03 688.53 223.03 688.53 216.86 682.37 216.86 682.37 216.93 680.96 216.93 680.96 216.99 679.41 216.99 679.41 217.08 678.01 217.08 678.01 217.12 676.46 217.12 676.46 217.22 675.05 217.22 675.05 217.25 673.5 217.25 673.5 217.36 672.1 217.36 672.1 217.38 670.54 217.38 670.54 217.51 670.04 217.51 670.04 217.38 670.54 217.38 670.54 217.36 672.1 217.36 672.1 217.25 673.5 217.25 673.5 217.22 675.05 217.22 675.05 217.12 676.46 217.12 676.46 217.08 678.01 217.08 678.01 216.99 679.41 216.99 679.41 216.93 680.96 216.93 680.96 216.86 682.37 216.86 682.37 210.7 682.37 204.79"/><polygon class="cls-2 primary1Stroke" points="229.62 202.96 228.17 202.96 228.17 202.42 224.66 202.42 224.66 202.87 223.28 202.87 223.28 203.61 221.92 203.61 221.92 204.96 221.48 204.96 221.48 205.93 221.14 205.93 220.2 205.93 220.2 203.81 219.07 203.81 219.07 202.96 217.62 202.96 217.62 202.42 214.1 202.42 214.1 202.87 212.72 202.87 212.72 203.61 211.36 203.61 211.36 204.96 210.92 204.96 210.92 206.5 210.77 206.5 210.77 208.04 210.62 208.04 210.62 209.58 210.47 209.58 210.47 213.09 213.98 213.09 213.98 211.55 214.14 211.55 214.14 210.15 214.29 210.15 214.29 211.55 214.14 211.55 214.14 212.97 214.1 212.97 214.1 213.09 213.98 213.09 213.98 213.42 212.72 213.42 212.72 214.16 211.36 214.16 211.36 215.51 210.92 215.51 210.92 217.05 210.77 217.05 210.77 218.59 210.62 218.59 210.62 220.13 210.47 220.13 210.47 223.65 213.98 223.65 213.98 222.11 214.14 222.11 214.14 220.7 214.41 220.7 214.41 220.95 217.93 220.95 217.93 220.21 219.29 220.21 219.29 220.13 221.02 220.13 221.02 218.59 221.17 218.59 221.17 217.43 221.32 217.43 221.32 218.59 221.17 218.59 221.17 220.13 221.02 220.13 221.02 223.65 224.54 223.65 224.54 222.11 224.69 222.11 224.69 220.7 224.96 220.7 224.96 220.95 228.48 220.95 228.48 220.21 229.84 220.21 229.84 219.19 230.49 219.19 230.49 217.87 230.75 217.87 230.75 214.36 229.62 214.36 229.62 213.51 228.17 213.51 228.17 212.97 227.24 212.97 227.24 210.84 227.24 210.4 228.48 210.4 228.48 209.66 229.84 209.66 229.84 208.64 230.49 208.64 230.49 207.32 230.75 207.32 230.75 203.81 229.62 203.81 229.62 202.96"/><path class="cls-2 primary1Stroke" d="M665.43,211.21h-.96v-1.04h-.96v-1.04h-.96v-1.04h-.52v-.08h.52v.08h.96v1.04h.96v1.04h.96v1.04h3.22v-3.22h-.96v-1.04h-.96v-1.04h-.96v-1.04h-.52v-2.66h-1.06v-.46h-3.22v1.03h-.32v.15h-1.23v.83h-1.76v.43h-1.35v.79h-.21v-.1h-.52v-2.66h-1.06v-.46h-3.22v1.03h-.32v.15h-1.23v.83h-1.76v.43h-1.35v3.22h.81v1.16h1.32v.03h1.1v4h-.11v.83h-1.76v.43h-1.35v3.22h.81v1.16h1.32v.03h3.22v-.59h.89v.08h.96v1.04h.96v1.04h.96v1.04h3.22v-2.62h2.67v-.59h.89v.08h.96v1.04h.96v1.04h.96v1.04h3.22v-3.22h-.96v-1.04h-.96v-1.04h-.96v-1.04h-.34v-3.32ZM656.3,215.58h-.21v-.54h.21v.54Z"/></g></svg><svg id="EYE-2-SUSS" xmlns="http://www.w3.org/2000/svg" viewBox="0 0 873 480" class="showSlide3"><defs><style>._lsj,.cls-2{stroke-miterlimit:10;stroke-width:.5px}</style></defs><g id="EYE-2-FRAME-3"><polygon class="_lsj secondary1Fill" points="687.83 206.43 686.26 206.43 686.26 206.42 684.68 206.42 684.68 206.42 683.11 206.42 683.11 206.42 682.41 206.42 682.41 206.41 683.11 206.41 683.11 206.42 684.68 206.42 684.68 206.42 686.26 206.42 686.26 206.42 687.83 206.42 687.83 206.43 691.41 206.43 691.41 202.85 689.83 202.85 689.83 202.85 688.26 202.85 688.26 202.84 686.69 202.84 686.69 202.84 685.11 202.84 685.11 202.84 683.54 202.84 683.54 202.83 681.96 202.83 681.96 202.83 681.36 202.83 681.36 200.02 679 200.02 679 199.98 676.64 199.98 676.64 199.95 674.28 199.95 674.28 199.91 671.91 199.91 671.91 199.87 669.55 199.87 669.55 199.83 667.19 199.83 667.19 199.79 664.83 199.79 664.83 199.75 662.47 199.75 662.47 199.71 660.11 199.71 660.11 199.67 657.74 199.67 657.74 199.63 655.38 199.63 655.38 199.59 653.02 199.59 653.02 199.56 651.49 199.56 651.49 199.53 646.12 199.53 646.12 199.71 644 199.71 644 199.67 641.64 199.67 641.64 199.63 639.28 199.63 639.28 199.59 636.92 199.59 636.92 199.56 635.38 199.56 635.38 199.53 630.02 199.53 630.02 202.24 629.39 202.24 629.39 202.25 627.82 202.25 627.82 202.27 626.24 202.27 626.24 202.28 624.67 202.28 624.67 202.3 623.09 202.3 623.09 202.31 621.52 202.31 621.52 202.33 619.94 202.33 619.94 202.34 618.37 202.34 618.37 202.36 616.8 202.36 616.8 205.93 617.73 205.93 617.73 205.96 619.3 205.96 619.3 206 620.37 206 620.37 209.51 620.37 213.06 619.94 213.06 619.94 213.08 618.37 213.08 618.37 213.09 616.8 213.09 616.8 216.67 617.73 216.67 617.73 216.7 619.3 216.7 619.3 216.73 620.87 216.73 620.87 216.77 621.98 216.77 621.98 217.05 622.31 217.05 622.31 217.06 623.88 217.06 623.88 217.09 625.46 217.09 625.46 217.11 627.03 217.11 627.03 217.14 628.61 217.14 628.61 217.16 630.02 217.16 630.02 221.01 631.55 221.01 631.55 221.03 632.38 221.03 632.38 221.07 634.74 221.07 634.74 221.13 637.1 221.13 637.1 221.19 642.47 221.19 642.47 221.18 643.36 221.18 643.36 221.22 645.72 221.22 645.72 221.26 648.08 221.26 648.08 221.3 650.44 221.3 650.44 221.34 652.8 221.34 652.8 221.38 655.17 221.38 655.17 221.42 657.53 221.42 657.53 221.46 659.89 221.46 659.89 221.49 665.26 221.49 665.26 221.3 666.55 221.3 666.55 221.34 668.91 221.34 668.91 221.38 671.27 221.38 671.27 221.42 673.63 221.42 673.63 221.46 675.99 221.46 675.99 221.49 681.36 221.49 681.36 217.78 682.28 217.78 682.28 217.78 682.41 217.78 682.41 217.15 683.11 217.15 683.11 217.15 684.68 217.15 684.68 217.16 686.26 217.16 686.26 217.16 687.83 217.16 687.83 217.16 691.41 217.16 691.41 213.58 689.83 213.58 689.83 213.58 688.26 213.58 688.26 213.58 687.83 213.58 687.83 210.01 687.83 206.43"/><polygon class="_lsj secondary1Fill" points="251.28 204.16 249.71 204.16 249.71 204.19 248.14 204.19 248.14 204.23 246.73 204.23 246.73 202.25 244.37 202.25 244.37 202.17 242.01 202.17 242.01 202.08 239.65 202.08 239.65 202 237.29 202 237.29 201.91 234.92 201.91 234.92 201.82 232.56 201.82 232.56 201.74 230.2 201.74 230.2 201.65 227.84 201.65 227.84 201.57 225.48 201.57 225.48 201.48 223.12 201.48 223.12 201.4 220.76 201.4 220.76 201.31 218.4 201.31 218.4 201.23 216.04 201.23 216.04 201.14 213.68 201.14 213.68 201.06 211.32 201.06 211.32 200.97 205.95 200.97 205.95 201.4 204.66 201.4 204.66 201.31 202.3 201.31 202.3 201.23 199.94 201.23 199.94 201.14 197.58 201.14 197.58 201.06 195.22 201.06 195.22 200.97 189.85 200.97 189.85 203.42 189.82 203.42 189.82 202.27 186.25 202.27 186.25 202.5 184.69 202.5 184.69 202.73 183.13 202.73 183.13 202.96 181.57 202.96 181.57 203.19 180.02 203.19 180.02 203.42 178.46 203.42 178.46 203.65 176.9 203.65 176.9 207.23 177.99 207.23 177.99 207.36 179.56 207.36 179.56 207.47 180.48 207.47 180.48 210.81 180.48 213.93 180.02 213.93 180.02 214.16 178.46 214.16 178.46 214.39 176.9 214.39 176.9 217.97 177.99 217.97 177.99 218.09 179.56 218.09 179.56 218.2 181.13 218.2 181.13 218.31 182.7 218.31 182.7 218.42 184.27 218.42 184.27 218.53 185.84 218.53 185.84 218.64 187.41 218.64 187.41 218.75 188.98 218.75 188.98 218.86 189.85 218.86 189.85 222.44 191.24 222.44 191.24 222.53 193.6 222.53 193.6 222.67 195.96 222.67 195.96 222.8 198.32 222.8 198.32 222.94 203.69 222.94 203.69 222.87 204.01 222.87 204.01 222.96 206.37 222.96 206.37 223.04 208.73 223.04 208.73 223.13 211.09 223.13 211.09 223.21 213.45 223.21 213.45 223.3 215.81 223.3 215.81 223.38 218.17 223.38 218.17 223.47 220.53 223.47 220.53 223.55 222.89 223.55 222.89 223.64 225.25 223.64 225.25 223.72 230.62 223.72 230.62 223.3 231.92 223.3 231.92 223.38 234.28 223.38 234.28 223.47 236.64 223.47 236.64 223.55 239 223.55 239 223.64 241.36 223.64 241.36 223.72 246.73 223.72 246.73 218.86 247.3 218.86 247.3 218.78 248.87 218.78 248.87 218.69 250.44 218.69 250.44 218.6 252.02 218.6 252.02 218.51 253.59 218.51 253.59 218.43 254.86 218.43 254.86 214.86 251.28 214.86 251.28 214.89 250.01 214.89 250.01 214.86 251.28 214.86 251.28 211.28 251.28 207.86 252.02 207.86 252.02 207.78 253.59 207.78 253.59 207.7 254.86 207.7 254.86 204.12 251.28 204.12 251.28 204.16"/><polygon class="cls-2 primary1Stroke" points="226.4 203.78 223.17 203.78 223.17 204.3 222.9 204.3 222.9 204.3 222.69 204.3 222.69 204.34 221.41 204.34 221.41 205.25 220.52 205.25 220.52 207.01 219.94 207.01 217.38 207.01 217.38 204.82 216.71 204.82 216.71 203.78 213.48 203.78 213.48 204.3 213.21 204.3 213.21 204.3 213 204.3 213 204.34 211.72 204.34 211.72 205.25 210.82 205.25 210.82 208.39 210.15 208.39 210.15 211.62 213.38 211.62 213.38 210.86 214.05 210.86 214.05 211.62 213.38 211.62 213.38 213.99 213.21 213.99 213.21 213.99 213 213.99 213 214.03 211.72 214.03 211.72 214.94 210.82 214.94 210.82 218.08 210.15 218.08 210.15 221.31 213.38 221.31 213.38 220.56 214.53 220.56 214.53 220.3 215.53 220.3 215.53 219.93 215.76 219.93 215.76 219.07 216.89 219.07 216.89 218.08 219.84 218.08 219.84 217.32 220.52 217.32 220.52 218.08 219.84 218.08 219.84 221.31 223.07 221.31 223.07 220.56 224.22 220.56 224.22 220.3 225.22 220.3 225.22 219.93 225.46 219.93 225.46 219.07 226.58 219.07 226.58 217.74 227.07 217.74 227.07 214.51 226.4 214.51 226.4 213.47 223.84 213.47 223.84 211.28 223.84 210.86 224.22 210.86 224.22 210.61 225.22 210.61 225.22 210.24 225.46 210.24 225.46 209.38 226.58 209.38 226.58 208.05 227.07 208.05 227.07 204.82 226.4 204.82 226.4 203.78"/><polygon class="cls-2 primary1Stroke" points="663.29 211.63 663.29 210.65 662.6 210.65 662.6 209.66 661.9 209.66 661.9 208.67 661.2 208.67 661.2 208.28 661.9 208.28 661.9 208.67 662.6 208.67 662.6 209.66 663.29 209.66 663.29 210.65 663.99 210.65 663.99 211.63 666.73 211.63 666.73 208.89 666.04 208.89 666.04 207.9 665.34 207.9 665.34 206.91 664.65 206.91 664.65 205.92 663.95 205.92 663.95 204.94 663.95 204.94 663.95 204.47 663.26 204.47 663.26 203.95 663.17 203.95 663.17 203.61 662.46 203.61 662.46 203.06 659.71 203.06 659.71 203.33 657.45 203.33 657.45 204.2 656.45 204.2 656.45 204.81 655.71 204.81 655.71 204.47 655.02 204.47 655.02 203.95 654.93 203.95 654.93 203.61 654.22 203.61 654.22 203.06 651.47 203.06 651.47 203.33 649.21 203.33 649.21 204.2 648.21 204.2 648.21 204.81 647.17 204.81 647.17 207.55 647.73 207.55 647.73 208.55 648.91 208.55 648.91 208.79 649.92 208.79 649.92 210.3 649.92 211.57 649.21 211.57 649.21 212.43 648.21 212.43 648.21 213.05 647.17 213.05 647.17 215.79 647.73 215.79 647.73 216.78 648.91 216.78 648.91 217.03 651.66 217.03 651.66 216.8 652.83 216.8 652.83 216.51 653.66 216.51 653.66 216.91 654.36 216.91 654.36 217.9 655.05 217.9 655.05 218.88 655.75 218.88 655.75 219.87 658.49 219.87 658.49 217.13 657.8 217.13 657.8 217.03 658.49 217.03 658.49 217.13 661.24 217.13 662.6 217.13 662.6 217.9 663.29 217.9 663.29 218.88 663.99 218.88 663.99 219.87 666.73 219.87 666.73 217.13 666.04 217.13 666.04 216.14 665.34 216.14 665.34 215.15 664.65 215.15 664.65 214.16 663.99 214.16 663.99 211.63 663.29 211.63"/></g></svg><svg id="EYE-2-SUSS" xmlns="http://www.w3.org/2000/svg" viewBox="0 0 873 480" class="showSlide4 altColors"><defs><style>._8uh,.cls-2{stroke-miterlimit:10;stroke-width:.5px}</style></defs><g id="EYE-2-FRAME-4"><path class="_8uh secondary1Fill" d="M243.3,205.6h-.8s-.8,0-.8,0h0s-.8,0-.8,0h0s-.8,0-.8,0h0s-.8,0-.8,0h0s-.8,0-.8,0h0s-.8,0-.8,0h0s-.8,0-.8,0h0s-.8,0-.8,0h0s-.8,0-.8,0h0s-.8,0-.8,0h0s-.8,0-.8,0h0s-.8,0-.8,0h0s-.8,0-.8,0h0s-.8,0-.8,0h0s-.8,0-.8,0h0s-.8,0-.8,0h0s-.8,0-.8,0h0s-.8,0-.8,0h0s-.8,0-.8,0h0s-.8,0-.8,0h0s-.8,0-.8,0h0s-.8,0-.8,0h0s-.8,0-.8,0h0s-.8,0-.8,0h0s-.8,0-.8,0h0s-.8,0-.8,0h0s-.8,0-.8,0h0s-.8,0-.8,0h0s-.8,0-.8,0h0s-.8,0-.8,0h0s-.8,0-.8,0h0s-.8,0-.8,0h0s-.8,0-.8,0h0s-.8,0-.8,0h0s-.8,0-.8,0h0s-.8,0-.8,0h0s-.8,0-.8,0h0s-.8,0-.8,0h0s-.8,0-.8,0h0s-.8,0-.8,0h0s-.8,0-.8,0h0s-.8,0-.8,0h0s-.8,0-.8,0h0s-.8,0-.8,0h0s-.8,0-.8,0h0s-.8,0-.8,0h0s-.8,0-.8,0h0s-.8,0-.8,0h0s-.8,0-.8,0h0s-.8,0-.8,0h0s-.8,0-.8,0h0s-.8,0-.8,0h0s-.8,0-.8,0h0s-.66,0-.66,0v-.43h-1.82v.09h-.79v.09h-.79v.09h-.79v.09h-.79v.06h-.16s-.3,0-.3,0v-.43h-1.82v.09h-.79v.09h-.79v.09h-.79v.09h-.79v.06h-.16v1.82h.8s.8,0,.8,0h0s.22,0,.22,0v3.39h-.07v.09h-.79v.09h-.79v.06h-.16v1.82h.8s.8,0,.8,0h0s.8,0,.8,0h0s.8,0,.8,0h0s.8,0,.8,0h0s.8,0,.8,0h0s.8,0,.8,0h0s.8,0,.8,0h0s.8,0,.8,0h0s.01,0,.01,0v.46h.49v.02h-.49v-.02h-1.79v1.79h.49v.02h.79v.03h.79v.03h.79v.03h.79v.03h.79v.03h.79v.03h.79v.03h.79v.03h.79v.03h.79v.03h.79v.03h.79v.03h.79v.03h.79v.03h.79v.03h.79v.03h1.79v-.13h.09s.34,0,.34,0v.02h.79v.03h.79v.03h.79v.03h.79v.03h1.79v-.02h.23v.02h.79v.02h.79v.02h.79v.02h.79v.02h.79v.02h.79v.02h.79v.02h.79v.02h.79v.02h.79v.02h.79v.02h.79v.02h.79v.02h.79v.02h.79v.02h.79v.02h.79v.02h.79v.02h.79v.02h.79v.02h.79v.02h.79v.02h.79v.02h.79v.02h.79v.02h.79v.02h.79v.02h.79v.02h1.79v-.08h.43v.02h.79v.02h.79v.02h.79v.02h.79v.02h1.79v-1.79h-.79v-.02h-.79v-.02h-.22v-1.06h.02v-.08h.79v-.08h.8v-.05h.29v-1.82h-.8s-.8,0-.8,0h0s-.22,0-.22,0v-.47h1.71v-1.79h-.79v-.02h-.79v-.02h-.13v-1.21h.73v-.08h.8v-.05h.29v-1.82h-.8ZM194.37,211.02h-.3s.3,0,.3,0h0ZM197.39,213.33h-.49s.49-.01.49-.01h0ZM198.18,213.35h-.48s.48,0,.48,0h0Z"/><path class="_8uh secondary1Fill" d="M684.49,208.02h.24v-.05h.88v-.05h.88v-2h-2v.05h-.88v.05h-.88v.05h-.88v.05h-.28v-1.75h-.79v-.02h-.79v-.02h-.79v-.02h-.79v-.02h-.79v-.02h-.79v-.02h-.79v-.02h-.79v-.02h-.79v-.02h-.79v-.02h-.79v-.02h-.79v-.02h-.79v-.02h-.79v-.02h-.79v-.02h-.79v-.02h-.79v-.02h-.79v-.02h-.79v-.02h-.79v-.02h-.79v-.02h-.79v-.02h-.79v-.02h-.79v-.02h-.79v-.02h-.79v-.02h-.79v-.02h-.79v-.02h-.79v-.02h-.79v-.02h-.79v-.02h-.79v-.02h-.79v-.02h-.79v-.02h-.79v-.02h-.79v-.02h-.79v-.02h-.79v-.02h-.79v-.02h-.79v-.02h-.79v-.02h-.79v-.02h-.79v-.02h-.79v-.02h-.79v-.02h-.79v-.02h-.79v-.02h-.79v-.02h-.79v-.02h-.79v-.02h-.79v-.02h-.79v-.02h-.79v-.02h-.79v-.02h-1.79v.08h-.43v-.02h-.79v-.02h-.79v-.02h-.79v-.02h-.79v-.02h-1.79v1.79h.49v.02h.79v.03h.52v1.26h-.14s-.88,0-.88,0h0s-.88,0-.88,0h0s-.88,0-.88,0h0s-2,0-2,0v.06h-.39v2h.85v.22h.85v.22h.29v3.51h-1.61v.06h-.39v2h.85v.22h.85v.22h.74v1.08h.34v.05h.88v.06h.88v.06h.88v.06h.88v.06h.88v.06h.88v.06h2v-.32h.49v.06h.88v.06h.88v.06h.88v.06h.88v.06h2v-.62h.35s2,.01,2,.01v-.05h.88v-.05h.88v-.05h.88v-.05h.88v-.05h.88v-.03h.84v-.02h.04s.84-.01.84-.01v-.03h.88v-.03h.88v-.03h.88v-.03h.88v-.03h.88v-.03h.88v-.03h.88v-.03h.88v-.03h.88v-.03h.88v-.03h.88v-.03h.88v-.03h.88v-.03h.88v-.03h.88v-.03h.88v-.03h.88v-.03h.88v-.03h.88v-.03h.88v-.03h.88v-.03h.88v-.03h.88v-.03h.88v-.03h.88v-.03h.88v-.03h.88v-.03h.88v-.03h.88v-.02h.6v-.56h.29v-.05h.88v-.05h.88v-.05h.88v-.05h.88v-.05h.88v-.05h.88v-.05h.88v-.05h.88v-2h-2v.05h-.88v.05h-.88v.05h-.88v.05h-.88v.05h-.48v-.05h.48v-.05h.88v-.05h.88v-.05h.88v-.05h.88v-3.91ZM680.98,206.16h-.48s.48,0,.48,0h0Z"/><polygon class="cls-2 primary1Stroke" points="223.54 207.59 223.1 207.59 223.1 207.36 222.72 207.36 222.72 207.32 220.76 207.32 220.76 207.37 219.91 207.37 219.91 207.93 219.42 207.93 219.42 209.28 218.8 209.28 217.96 209.28 217.96 208.29 217.66 208.29 217.66 207.59 217.22 207.59 217.22 207.36 216.84 207.36 216.84 207.32 214.89 207.32 214.89 207.37 214.04 207.37 214.04 207.93 213.54 207.93 213.54 209.31 213.16 209.31 213.16 210.06 212.74 210.06 212.74 212.02 214.69 212.02 214.69 211.27 215.12 211.27 215.12 210.61 215.5 210.61 215.5 211.27 215.12 211.27 215.12 212.02 214.69 212.02 214.69 213.25 214.04 213.25 214.04 213.81 213.54 213.81 213.54 215.19 213.16 215.19 213.16 215.94 212.74 215.94 212.74 217.89 214.69 217.89 214.69 217.14 215.12 217.14 215.12 216.49 215.71 216.49 215.71 216.75 217.67 216.75 217.67 216.13 217.96 216.13 217.96 215.94 218.61 215.94 218.61 215.19 219.04 215.19 219.04 214.79 219.42 214.79 219.42 215.19 219.04 215.19 219.04 215.94 218.61 215.94 218.61 217.89 220.57 217.89 220.57 217.14 221 217.14 221 216.49 221.59 216.49 221.59 216.75 223.54 216.75 223.54 216.13 223.84 216.13 223.84 214.17 223.54 214.17 223.54 213.47 223.1 213.47 223.1 213.24 222.72 213.24 222.72 213.2 221.88 213.2 221.88 212.21 221.88 210.87 223.54 210.87 223.54 210.25 223.84 210.25 223.84 208.29 223.54 208.29 223.54 207.59"/><path class="cls-2 primary1Stroke" d="M663.99,214.39v-1.63h-.22v-.68h-.22v-.68h-.22v-.68h-.22v-.68h-.22v-.68h-.22v-.68h-.22v-.68h-.22v-.68h-.22v-.68h-1.63v.1h-.12v.56h-1.21v.25h-.54v.24h-.49v.48h-.46v-.26h-.22v-.68h-.22v-.68h-1.63v.1h-.12v.56h-1.21v.25h-.54v.24h-.49v.56h-.43v1.63h.53v.44h1.1v1.77h-.16v.25h-.54v.24h-.49v.56h-.43v1.63h.53v.44h1.63v-.07h.61v-.18h.06v-.16h.57v-.02h.04v.34h.22v.68h.22v.68h.22v.68h.22v.68h.22v.68h.22v.68h1.63v-1.63h-.22v-.68h-.22v-.68h-.22v-.68h-.22v-.33h.22v.33h.22v.68h.22v.68h.22v.68h2.83v.26h.22v.68h.22v.68h1.63v-1.63h-.22v-.68h-.22v-.68h-.22v-.68h-.22v-.68h-.22v-.52h1.08ZM658.16,214.92h-.13v-.08h.13v.08ZM661.5,211.5h-.22v-.52h-.22v-.68h-.22v-.31h.17v-.02h.04v.34h.22v.68h.22v.52Z"/></g></svg><svg id="MOUTH-8-SALT" xmlns="http://www.w3.org/2000/svg" viewBox="0 0 873 480"><defs><style>._ho8,._b8t{stroke-miterlimit:10;stroke-width:.5px}._b8t{stroke:#000}</style></defs><path class="_ho8 primary1Stroke" d="M496.7,291.06v-12.83h2.43v-13.06h1.36v-13.11h.75v-1.5h3.59v-5.4h.22v-4.35h.79v-29.85h-7.31v-.78h-11.81v-11.29h2.5v.94h7.74v-2.29h-3.16v-3.5h-12.3v-.94h-10.39v-3.48h-3.53v-6.39h-19.62v6.2h-4.07v8.07h-4.12v5.35h-1.66v-5.31h-3.16v-3.5h-12.3v-.94h-10.39v-3.48h-3.53v-6.39h-19.62v6.2h-4.07v8.07h-4.12v7.14h-1.26v.42h-2.91v7.56h-4.17v8.17h-2.37v8.53h-1.34v5.63h-.14v19.62h5.4v2.75h-.36v8.62h-.36v5.53h-.83v8.17h-2.37v8.53h-1.34v5.63h-.14v19.62h5.4v2.75h-.36v8.62h-.36v8.62h-.36v8.62h-.36v19.62h4.62v1.41h-4.59v9.59h20.88v12.54h8.97v-4.59h4.59v-12.83h.78v3.65h2.81v4.74h4.18v4.41h15.28v-6.65h1.03v-7.06h4.43v-1.58h18.12v6.13h2.81v4.74h4.18v4.41h1.48v12.33h29.85v-12.31h4.59v-12.83h2.43v-13.06h1.36v-13.11h.75v-1.5h3.59v-5.4h.22v-4.35h.79v-29.85h-7.31v-.78h-6.42v-8.67h4.59ZM466.85,363.07h-4.59v12.88h-2.46v-12.88h2.46v-10.42h4.59v10.42ZM469.28,348.14h-2.43v-7.47h2.43v7.47Z"/><path class="_b8t primary1Fill" d="M406.3,324.53h-.17v-1.57h-.17v-1.57h-.17v-1.57h-.17v-1.57h-.17v-1.57h-.17v-1.57h-.17v-1.57h-.17v-1.57h-.17v-1.57h-.17v-1.57h-.17v-1.57h-.17v-1.57h-.17v-1.57h-.17v-1.57h-.17v-1.57h-.17v-1.57h-.17v-1.57h-.17v-1.57h-.17v-1.57h-.17v-1.57h-.17v-1.57h-.17v-1.57h-.17v-1.57h-.17v-1.57h-.17v-1.57h-.17v-1.57h-.17v-1.57h-.17v-1.57h-.17v-1.57h-.17v-1.57h-.17v-1.57h-.17v-1.57h-.17v-1.57h-.01v-1.1h-.16v-.46h-.17v-1.57h-3.58v1.07h-.68v-.19h-.76v-.19h-.76v-.19h-.76v-.19h-1.79v.96h-.52v-.19h-.76v-.19h-.76v-.19h-.35v-.69h-3.58v3.58h.17v1.57h.17v1.57h.17v1.57h.17v1.57h.17v.89h-.84v3.58h.17v1.57h.17v1.57h.17v1.57h.17v1.57h.17v1.57h.17v1.57h.17v1.57h.17v1.57h.17v1.57h.17v1.57h.17v1.57h.17v1.57h.17v1.57h.17v1.57h.17v1.57h.17v1.57h.17v1.57h.17v1.57h.17v1.08h-1.61v1.36h-.79v1.36h-.79v1.36h-.79v1.4h-.6v3.58h.21v1.56h.21v1.56h.21v1.56h.59v1.08h-.63v1.4h-.6v3.58h.21v1.56h.21v1.56h.21v1.56h.59v1.36h1.18v1.04h3.58v-.78h1.33v-.56h.01v.88h3.58v-3.12h.46v1.18h.59v1.36h1.18v1.04h3.58v-.78h1.33v-.56h.01v.88h3.58v-3.58h-.05v-.88h-.17v-1.57h-.17v-1.57h-.17v-1.57h-.17v-1.57h-.17v-.02h.89v-3.58h-.05v-.88ZM389.5,334.77h-.03v.8h-.57v-1.36h-.21v-1.56h-.21v-.94h.21v.94h.21v1.56h.59v.56ZM389.78,319.61h-.11v1.36h-.79v1.4h-.18v-.46h-.21v-.94h.39v-1.36h.79v-1.02h.11v1.02ZM396.83,273.17h-.18v-.19h-.76v-.19h-.52v-.19h.52v.19h.76v.19h.18v.19ZM397.67,280.47h-.17v-.89h-.17v-1.23h.08v.19h.09v1.04h.17v.89Z"/><path class="_b8t primary1Fill" d="M421.73,275.15h-.05v-.03h-.73v-.05h-.05v-.05h-.23v-1.59h0s3.31,0,3.31,0v-1.57h.08v-1.57h.08v-1.57h.08v-1.57h.08v-1.57h.08v-1.57h.08v-1.57h.08v-1.57h.08v-1.57h.08v-1.57h.08v-1.57h.08v-1.57h.08v-1.57h.08v-1.57h.08v-1.57h.08v-1.57h.08v-1.57h.08v-1.57h.08v-1.57h.08v-1.57h.08v-1.57h.12v-1.57h.14v-1.57h.14v-1.57h.14v-1.57h.14v-1.57h.14v-1.57h.14v-1.57h.14v-1.57h.14v-1.57h.14v-1.57h.14v-1.57h.14v-.84h1.31v-1.19h1.03v-1.19h1.03v-1.19h1.03v-1.19h1.03v-1.19h1.03v-1.19h1.03v-1.56h.15v-1.57h.12v-1.57h.12v-1.57h.12v-1.57h.12v-3.58h-.39v-1.4h-.11v-1.05h.12v-1.57h.12v-1.57h.12v-1.57h.12v-3.58h-.39v-1.4h-1.03v-1.19h-1.24v-.77h-1.57v-.1h-3.58v.75h-1.06v1.44h-.64v.99h-1.61v-1.11h-1.03v-1.19h-1.24v-.77h-1.57v-.1h-3.58v.75h-1.06v1.44h-.64v.99h-2.22v.84h-1.33v1.16h-.89v1.53h-.35v.11h-1.39v.08h-1.57v.12h-1.55v1.1h-1.13v1.1h-1.13v1.1h-1.13v1.1h-1.13v1.23h-.69v3.58h.36v1.53h.36v1.53h1.24v.85h.98v.91h-1.13v1.1h-1.13v1.23h-.69v3.58h.36v1.53h.36v1.53h1.24v.85h1.39v.74h1.43v.04h3.58v-.57h.31v.27h1.09v1.14h1.09v1.14h.15v1.32h-.14v1.57h-.14v1.57h-.12v1.57h-.08v1.57h-.08v1.57h-.08v1.57h-.08v1.57h-.08v1.57h-.08v1.57h-.08v1.57h-.08v1.57h-.08v1.57h-.08v1.57h-.08v1.57h-.08v1.57h-.08v1.57h-.08v1.57h-.08v1.57h-.08v1.57h-.08v1.57h-.08v1.57h-.08v1.57h-.08v3.58h.41v.87h-.08v1.57h-.08v1.57h-.08v1.57h-.08v.24h-1.11v1.79h.52v.59h.51v2.53h.76v.46h.52v.59h.68v.04h.03v.1h-.03v-.1h-.68v-.04h-.52v-.59h-1.79v1.79h.52v.59h.68v.04h.03v.17h.78v.08h.78v.08h.78v.08h.74s.04,0,.04,0v.08h.74v.02h.05v.05h.73v.05h.05v.03h.73v.07h1.79v-.38h.5v.08h.74s.04,0,.04,0v.08h.74v.02h.05v.05h.73v.05h.05v.03h.73v.07h1.79v-1.79h-.73v-.07ZM431.77,206.91h-.04v-.08h.04v.08ZM429.54,193.91h.64v-.65h.29v.77h1.03v1.19h.27v.96h-.12v.44h-.14v-1.4h-1.03v-1.19h-.93v-.12ZM427.9,215.32h.14v-.14h.11v-.37h.29v-.82h.74v-1.19h1.03v-1.19h1.03v-1.56h.15v-1.57h.12v-.46h.12v.46h-.12v1.57h-.12v1.56h-.15v1.19h-1.03v1.19h-1.03v1.19h-1.03v1.19h-.26v-1.05ZM407.66,217.09h-.68v.53h-.71v-.74h-1.24v-.85h-.36v-.71h.33v-.82h.03v1.53h1.24v.85h1.39v.22ZM409.73,200.17h-.23v.71h-.13v.39h-1v1.1h-1.13v1.1h-1.13v1.1h-1.13v.71h-.33v-.71h.33v-1.1h1.13v-1.1h1.13v-1.1h1.13v-1.1h1.13v-.12h.23v.12ZM412.45,274.72h-.04v-.03h.04v.03ZM413.23,274.82h-.04v-.05h.04v.05ZM413.87,199.89h-.21s.21,0,.21,0h0ZM414.01,274.92h-.03v-.08h.03v.08ZM418.81,193.91h.64v-.65h.29v.65h-.29v1.44h-.54v-.74h-.1v-.7ZM420.41,271.65h-.46v-.07h-.05v-.03h-.73v-.05h-.05v-.05h-.74v-.02h-.04v-.08h-.74s-.04,0-.04,0v-.08h.04v.08h.74s.04,0,.04,0v.08h.74v.02h.05v.05h.73v.05h.05v.03h.46v.07ZM420.65,265.13v1.57h-.08v1.57h-.08v1.38h-.08v-1.38h.08v-1.57h.08v-1.57h.08v-1.57h.08v-.87h.08v.87h-.08v1.57h-.08Z"/><path class="_b8t primary1Fill" d="M448.37,334.12h0v-1.57h-.39v-1.5h-.62v-1.45h-.62v-1.45h-.3v-.65h.57v-1.47h.57v-1.47h.57v-1.57h.03v-1.57h.01v-1.57h.01v-1.57h.01v-1.57h.01v-1.57h.01v-1.57h.01v-1.57h.01v-1.57h.01v-1.57h.01v-1.57h.01v-1.57h.01v-1.57h.01v-1.57h.01v-3.58h-.06v-.86h.01v-1.57h.01v-1.57h.01v-1.57h.01v-1.57h.01v-3.58h-1.98v-.59h-1.79v.21h-.76v.21h-.76v.21h-.76v.21h-.76v.21h-.55v-1.07h-1.79v.21h-.76v.21h-.76v.21h-.09v-.05h-3.58v.9h-.12v1.79h.11v.45h-.01v1.57h-.01v1.55h-.09v1.79h.06v1.39h-.01v1.57h-.01v1.57h-.01v1.57h-.01v1.57h-.01v1.57h-.01v1.57h-.01v1.57h-.01v1.57h-.03v1.47h-.57v1.47h-.57v1.47h-.57v1.47h-.57v1.47h-.57v1.47h-.57v1.47h-.57v1.47h-.57v1.47h-.57v1.47h-.57v1.12h-1.14v.42h-1.35v1.06h-1.17v1.06h-1.17v1.18h-.29v3.58h.83v1.34h.92v.8h.37v.83h.17v1.55h.33v.41h-1.16v1.06h-1.17v1.18h-.29v3.58h.83v1.34h.92v.8h.37v.83h.17v1.55h.33v1.54h.71v1.32h1.05v.22h.1v.85h.99v.13h.27v.1h1.23v.39h1.5v.49h3.58v-1.01h1.06v-1.22h.97v.05h1.05v.22h.1v.85h.99v.13h.27v.1h1.23v.39h1.5v.49h3.58v-1.01h1.06v-1.22h1v-1.37h.56v-3.58h0v-1.57h0v-1.57h-.39v-1.5h-.62v-1.14h.46v-1.37h.56v-3.58h0v-1.57ZM429.19,345.3h-.06v-.2h.06v.2ZM429.9,346.69h-.42v-.15h.42v.15ZM431.06,348.38h-.1v-.31h-.74v-.22h.74v.22h.1v.31ZM437.6,296.52h-.01v1.57h-.01v.86h-.01v-.86h.01v-1.57h.01v-.88h.01v.88ZM439.29,290.06h-.55v.21h-.76v.21h-.36v-.21h.36v-.21h.76v-.21h.55v.21ZM444.77,291.37h-.01v.43h-.16v-1.95h.18v1.52Z"/><path class="_b8t primary1Fill" d="M470.24,288.77v-.18h2.03v-1.54h.3v-1.54h.3v-1.54h.3v-1.54h.3v-1.54h.3v-1.54h.3v-1.54h.3v-1.54h.3v-1.54h.3v-1.54h.3v-1.54h.3v-1.54h.3v-1.54h.3v-1.54h.3v-1.54h.3v-1.54h.3v-1.54h.3v-1.54h.3v-1.54h.3v-1.54h.3v-1.54h.3v-1.54h.3v-1.54h.3v-1.54h.3v-1.54h.3v-1.54h.3v-1.52h.36v-1.28h.92v-1.28h.92v-1.28h.92v-1.28h.92v-1.28h.92v-1.28h.92v-1.4h.55v-1.57h.01v-1.57h.01v-1.57h.01v-1.57h.01v-1.57h.01v-1.57h.01v-3.58h-.07v-.86h.01v-1.57h.01v-1.57h.01v-1.57h.01v-1.57h.01v-3.58h-3.58v.69h-.64v1.34h-.83v1.34h-.83v.2h-4.86v.69h-.01v-.69h.01v-3.58h-3.58v.69h-.64v1.11h-.11v.23h-.72v.23h-.79v.45h-1.51v.45h-1.51v.73h-1.28v1.1h-.64v-3.34h-3.58v.14h-.71v.45h-1.51v.45h-1.51v.45h-1.51v.73h-1.28v1.39h-.74v1.39h-.74v1.39h-.74v1.39h-.74v3.58h.14v1.53h.36v1.47h1.5v.46h.23v.91h-.74v1.39h-.74v1.39h-.74v3.58h.14v1.53h.36v1.47h1.5v.46h1.5v.46h1.5v.46h1.5v.46h1.07v.83h.12v1.48h1.15v1.07h1.15v1.07h1.18v.84h-.2v1.54h-.3v1.54h-.3v1.54h-.3v1.54h-.3v1.54h-.3v1.54h-.3v1.54h-.3v1.54h-.3v1.54h-.3v1.54h-.3v1.54h-.3v1.54h-.3v1.54h-.3v1.54h-.3v1.54h-.3v1.54h-.3v1.54h-.3v3.58h1.52v.98h-.3v1.54h-.3v1.54h-.3v1.54h-.3v1.54h-.3v3.58h1.43v.57h-.06v1.79h1.79v-.79h.06v-.79h.06v-.22h3.46v-.39h.06v.39h-.06v1.79h1.79v-.79h.06v-.79h.06v-.79h.06v-.54h.29v.24h.75v.24h.75v.24h1.79ZM482.64,234.52h.3v-.25h.12v-1.15h.01v1.15h-.01v1.4h-.42v-1.15ZM482.33,236.07h.18v.88h-.18v-.88ZM459.93,238.4h-.1v.28h-.6v-.46h-1.5v-.46h-1.5v-.46h-.36v-.81h.36v.81h1.5v.46h1.5v.46h.7v.19ZM461.49,220.84h-1.51v.73h-1.28v1.39h-.74v1.39h-.74v1.39h-.74v1.28h-.24v-.46h-.36v-.81h.6v-1.39h.74v-1.39h.74v-1.39h.74v-.73h1.28v-.1h1.51v.1ZM462.99,220.38h-.6v-.35h.6v.35ZM464.58,241.83h-.22v.69h-.93v-.25h.15v-.82h1.01v.38ZM464.87,286.81h0v.18h-.06v-.18h.06v-.06h0v.06ZM469.3,280.38h.3v-1.54h.3v-.98h.3v.98h-.3v1.54h-.3v1.24h-.12v-.24h-.18v-1ZM468.45,285.2v-.18h.25v-1.54h.3v-.06h.3v.06h-.3v1.54h-.3v1.5h-.25v-1.31Z"/><path class="_b8t primary1Fill" d="M503.97,275.45v-.28h.34v-1.18h.24v-1.86h.61v-1.79h-.79v-.05h-.79v-.05h-.79v-.05h-.79v-.05h-.79v-.05h-.79v-.05h-.79v-.05h-.79v-.05h-.79v-.05h-.79v-.05h-.79v-.05h-1.79v.24h-.44v-.05h-.79v-.05h-.79v-.05h-.79v-.05h-.79v-.05h-1.79v1.79h.64v.27h-.34v1.25h0v.21h-.56v1.47h-.57v1.47h-.57v1.47h-.57v1.47h-.57v1.47h-.57v1.47h-.57v1.47h-.57v1.47h-.57v1.47h-.57v1.47h-.57v1.47h-.57v1.47h-.57v1.47h-.57v1.47h-.57v1.47h-.57v1.47h-.57v1.47h-.57v1.47h-.57v1.47h-.57v1.47h-.57v1.47h-.57v1.47h-.57v1.47h-.57v1.47h-.57v1.47h-.57v.02h-3.2v1.06h-1.08v1.14h-1.09v1.24h-.44v1.48h-.15v1.56h-.18v1.56h-.18v3.58h.06v1.49h.9v1.06h-.44v1.48h-.15v.46h-.34v2.67h-.03v3.58h.06v1.49h1.03v1.19h.08v.35h-.57v1.47h-.57v3.58h3.58v-1.47h.57v-1.47h.57v-.64h6.01v-1.47h.57v-1.47h.49v1.12h.08v.35h-.57v1.47h-.57v3.58h3.58v-1.47h.57v-1.47h.57v-1.47h.57v-.27h.49v-.59h1.46v-.59h1.46v-.81h.08v-.02h1.57v-.33h1.4v-1.35h.62v-3.58h-.38v-1.53h-.38v-1.53h-.31v-.9h.56v-1.47h.56v-1.47h.56v-1.47h.56v-1.47h.56v-1.47h.56v-1.47h.56v-1.47h.56v-1.47h.56v-1.47h.56v-1.47h.56v-1.47h.56v-1.47h.56v-1.47h.56v-1.47h.56v-1.47h.56v-1.47h.56v-1.47h.56v-1.47h.56v-1.47h.56v-1.51h.43v-1.54h.34v-1.54h.34v-1.54h.34v-1.54h.34v-1.54h.34v-1.25h0v-.28h.34v-1.18h.24v-3.58h-1.62v-1.36h.34v-1.54h.34v-.75h1.54v-1.79h-.79v-.05h-.41v-.2h0ZM492.66,278.39h-.13v-.14h.13v.14ZM493.57,275.38h-.07v-.05h-.27v-.05h.27v.05h.07v.05ZM500.39,271.99h-.17v-.05h-.44v-.05h.44v.05h.17v.05Z"/><rect class="_ho8 primary1Stroke" x="391.35" y="248.3" width="1.29" height="1.29"/><rect class="_ho8 primary1Stroke" x="368.73" y="266.17" width="1.29" height="1.29"/><rect class="_ho8 primary1Stroke" x="379.13" y="298.95" width="1.29" height="1.29"/><rect class="_ho8 primary1Stroke" x="495.27" y="232.65" width="1.29" height="1.29"/><rect class="_ho8 primary1Stroke" x="451.5" y="188.93" width="1.29" height="1.29"/><rect class="_ho8 primary1Stroke" x="364.88" y="262.69" width="1.29" height="1.29"/><rect class="_ho8 primary1Stroke" x="418.16" y="304.5" width="1.29" height="1.29"/><rect class="_ho8 primary1Stroke" x="447.74" y="266.17" width="1.29" height="1.29"/><rect class="_ho8 primary1Stroke" x="498.5" y="226.36" width="1.29" height="1.29"/><rect class="_ho8 primary1Stroke" x="499.74" y="202.02" width="1.29" height="1.29"/><rect class="_ho8 primary1Stroke" x="470.22" y="371.68" width="1.29" height="1.29"/><rect class="_ho8 primary1Stroke" x="458.03" y="385.58" width="1.29" height="1.29"/><rect class="_ho8 primary1Stroke" x="455.86" y="347.21" width="1.29" height="1.29"/><rect class="_ho8 primary1Stroke" x="417.46" y="368.25" width="1.29" height="1.29"/><rect class="_ho8 primary1Stroke" x="409.08" y="381.88" width="1.29" height="1.29"/><rect class="_ho8 primary1Stroke" x="483.08" y="367.6" width="1.29" height="1.29"/><rect class="_ho8 primary1Stroke" x="455.22" y="339.54" width="1.29" height="1.29"/><rect class="_ho8 primary1Stroke" x="413.01" y="361.43" width="1.29" height="1.29"/><rect class="_ho8 primary1Stroke" x="412.37" y="386.22" width="1.29" height="1.29"/><rect class="_ho8 primary1Stroke" x="397.03" y="262.05" width="1.29" height="1.29"/><rect class="_ho8 primary1Stroke" x="384.06" y="303.21" width="1.29" height="1.29"/><rect class="_ho8 primary1Stroke" x="365.53" y="340.83" width="1.29" height="1.29"/><rect class="_ho8 primary1Stroke" x="379.78" y="241.88" width="1.29" height="1.29"/><rect class="_ho8 primary1Stroke" x="362.24" y="278.77" width="1.29" height="1.29"/><rect class="_ho8 primary1Stroke" x="479.75" y="379.94" width="2.58" height="2.58"/><rect class="_ho8 primary1Stroke" x="456.61" y="390.34" width="2.58" height="2.58"/><rect class="_ho8 primary1Stroke" x="495.92" y="330.42" width="2.58" height="2.58"/><rect class="_ho8 primary1Stroke" x="390.06" y="210.9" width="2.58" height="2.58"/><rect class="_ho8 primary1Stroke" x="492.28" y="248.3" width="2.58" height="2.58"/><rect class="_ho8 primary1Stroke" x="454.57" y="206.73" width="2.58" height="2.58"/><rect class="_ho8 primary1Stroke" x="495.27" y="203.99" width="2.58" height="2.58"/><rect class="_ho8 primary1Stroke" x="390.06" y="356.71" width="2.58" height="2.58"/><rect class="_ho8 primary1Stroke" x="368.73" y="327.84" width="2.58" height="2.58"/></svg><svg id="FLAME-FRAME-1" xmlns="http://www.w3.org/2000/svg" viewBox="0 0 873 480" class="showSlide1"> <defs> <style>._fs1{ stroke-miterlimit: 10; stroke-width: .5px}</style> </defs> <polygon class="_fs1 primary1Stroke secondary1Fill" points="88.43 62.12 89.76 68.47 86.63 72.65 86.8 80.1 87.3 85.09 91.64 79 91.73 88.22 85.82 98.92 73.16 102.6 65.29 102.42 51.75 96.13 51.72 89.44 53.72 84.13 54.5 87.78 58.42 84.48 59.46 78.22 61.46 74.65 61.81 80.1 64.37 81.33 67.81 76.56 67 71.91 69.66 68.47 76.88 63.51 74.01 69.79 77.55 77.26 84.51 70.47 87.38 68.04 88.43 62.12"/> <polygon class="_fs1 primary1Stroke secondary1Fill" points="294.11 62.12 295.44 68.47 292.31 72.65 292.48 80.1 292.98 85.09 297.32 79 297.41 88.22 291.5 98.92 278.84 102.6 270.97 102.42 257.43 96.13 257.4 89.44 259.4 84.13 260.18 87.78 264.1 84.48 265.14 78.22 267.14 74.65 267.49 80.1 270.05 81.33 273.49 76.56 272.68 71.91 275.35 68.47 282.57 63.51 279.69 69.79 283.23 77.26 290.19 70.47 293.06 68.04 294.11 62.12"/> <polygon class="_fs1 primary1Stroke secondary1Fill" points="88.43 250.49 89.76 256.84 86.63 261.01 86.8 268.46 87.3 273.45 91.64 267.36 91.73 276.58 85.82 287.28 73.16 290.97 65.29 290.79 51.75 284.5 51.72 277.8 53.72 272.5 54.5 276.15 58.42 272.84 59.46 266.58 61.46 263.02 61.81 268.46 64.37 269.7 67.81 264.93 67 260.28 69.66 256.84 76.88 251.88 74.01 258.16 77.55 265.62 84.51 258.84 87.38 256.4 88.43 250.49"/> <polygon class="_fs1 primary1Stroke secondary1Fill" points="191.27 156.51 192.6 162.86 189.47 167.04 189.64 174.49 190.14 179.48 194.48 173.39 194.57 182.61 188.66 193.31 176 196.99 168.13 196.81 154.59 190.52 154.56 183.83 156.56 178.52 157.34 182.17 161.26 178.87 162.3 172.6 164.3 169.04 164.65 174.49 167.21 175.72 170.65 170.95 169.84 166.3 172.51 162.86 179.72 157.9 176.85 164.18 180.39 171.65 187.35 164.86 190.22 162.43 191.27 156.51"/> <polygon class="_fs1 primary1Stroke secondary1Fill" points="191.27 344.88 192.6 351.23 189.47 355.4 189.64 362.85 190.14 367.84 194.48 361.75 194.57 370.97 188.66 381.67 176 385.36 168.13 385.18 154.59 378.89 154.56 372.19 156.56 366.88 157.34 370.54 161.26 367.23 162.3 360.97 164.3 357.4 164.65 362.85 167.21 364.09 170.65 359.32 169.84 354.67 172.51 351.23 179.72 346.27 176.85 352.55 180.39 360.01 187.35 353.23 190.22 350.79 191.27 344.88"/> <polygon class="_fs1 primary1Stroke secondary1Fill" points="401.08 156.51 402.41 162.86 399.28 167.04 399.46 174.49 399.95 179.48 404.3 173.39 404.39 182.61 398.47 193.31 385.81 196.99 377.94 196.81 364.41 190.52 364.37 183.83 366.37 178.52 367.16 182.17 371.07 178.87 372.12 172.6 374.11 169.04 374.46 174.49 377.02 175.72 380.47 170.95 379.65 166.3 382.32 162.86 389.54 157.9 386.66 164.18 390.21 171.65 397.17 164.86 400.04 162.43 401.08 156.51"/> <polygon class="_fs1 primary1Stroke secondary1Fill" points="401.08 344.88 402.41 351.23 399.28 355.4 399.46 362.85 399.95 367.84 404.3 361.75 404.39 370.97 398.47 381.67 385.81 385.36 377.94 385.18 364.41 378.89 364.37 372.19 366.37 366.88 367.16 370.54 371.07 367.23 372.12 360.97 374.11 357.4 374.46 362.85 377.02 364.09 380.47 359.32 379.65 354.67 382.32 351.23 389.54 346.27 386.66 352.55 390.21 360.01 397.17 353.23 400.04 350.79 401.08 344.88"/> <polygon class="_fs1 primary1Stroke secondary1Fill" points="294.11 250.49 295.44 256.84 292.31 261.01 292.48 268.46 292.98 273.45 297.32 267.36 297.41 276.58 291.5 287.28 278.84 290.97 270.97 290.79 257.43 284.5 257.4 277.8 259.4 272.5 260.18 276.15 264.1 272.84 265.14 266.58 267.14 263.02 267.49 268.46 270.05 269.7 273.49 264.93 272.68 260.28 275.35 256.84 282.57 251.88 279.69 258.16 283.23 265.62 290.19 258.84 293.06 256.4 294.11 250.49"/> <polygon class="_fs1 primary1Stroke secondary1Fill" points="504.22 62.12 505.56 68.47 502.42 72.65 502.6 80.1 503.09 85.09 507.44 79 507.53 88.22 501.61 98.92 488.95 102.6 481.08 102.42 467.55 96.13 467.51 89.44 469.52 84.13 470.3 87.78 474.21 84.48 475.26 78.22 477.25 74.65 477.61 80.1 480.16 81.33 483.61 76.56 482.79 71.91 485.46 68.47 492.68 63.51 489.8 69.79 493.35 77.26 500.31 70.47 503.18 68.04 504.22 62.12"/> <polygon class="_fs1 primary1Stroke secondary1Fill" points="709.9 62.12 711.24 68.47 708.1 72.65 708.28 80.1 708.77 85.09 713.12 79 713.21 88.22 707.29 98.92 694.63 102.6 686.77 102.42 673.23 96.13 673.2 89.44 675.2 84.13 675.98 87.78 679.89 84.48 680.94 78.22 682.94 74.65 683.29 80.1 685.84 81.33 689.29 76.56 688.47 71.91 691.14 68.47 698.36 63.51 695.48 69.79 699.03 77.26 705.99 70.47 708.86 68.04 709.9 62.12"/> <polygon class="_fs1 primary1Stroke secondary1Fill" points="504.22 250.49 505.56 256.84 502.42 261.01 502.6 268.46 503.09 273.45 507.44 267.36 507.53 276.58 501.61 287.28 488.95 290.97 481.08 290.79 467.55 284.5 467.51 277.8 469.52 272.5 470.3 276.15 474.21 272.84 475.26 266.58 477.25 263.02 477.61 268.46 480.16 269.7 483.61 264.93 482.79 260.28 485.46 256.84 492.68 251.88 489.8 258.16 493.35 265.62 500.31 258.84 503.18 256.4 504.22 250.49"/> <polygon class="_fs1 primary1Stroke secondary1Fill" points="607.06 156.51 608.4 162.86 605.26 167.04 605.44 174.49 605.93 179.48 610.28 173.39 610.37 182.61 604.45 193.31 591.79 196.99 583.92 196.81 570.39 190.52 570.36 183.83 572.36 178.52 573.14 182.17 577.05 178.87 578.1 172.6 580.1 169.04 580.45 174.49 583 175.72 586.45 170.95 585.63 166.3 588.3 162.86 595.52 157.9 592.64 164.18 596.19 171.65 603.15 164.86 606.02 162.43 607.06 156.51"/> <polygon class="_fs1 primary1Stroke secondary1Fill" points="607.06 344.88 608.4 351.23 605.26 355.4 605.44 362.85 605.93 367.84 610.28 361.75 610.37 370.97 604.45 381.67 591.79 385.36 583.92 385.18 570.39 378.89 570.36 372.19 572.36 366.88 573.14 370.54 577.05 367.23 578.1 360.97 580.1 357.4 580.45 362.85 583 364.09 586.45 359.32 585.63 354.67 588.3 351.23 595.52 346.27 592.64 352.55 596.19 360.01 603.15 353.23 606.02 350.79 607.06 344.88"/> <polygon class="_fs1 primary1Stroke secondary1Fill" points="816.88 156.51 818.21 162.86 815.08 167.04 815.25 174.49 815.75 179.48 820.1 173.39 820.18 182.61 814.27 193.31 801.61 196.99 793.74 196.81 780.2 190.52 780.17 183.83 782.17 178.52 782.95 182.17 786.87 178.87 787.91 172.6 789.91 169.04 790.26 174.49 792.82 175.72 796.26 170.95 795.45 166.3 798.12 162.86 805.34 157.9 802.46 164.18 806.01 171.65 812.96 164.86 815.84 162.43 816.88 156.51"/> <polygon class="_fs1 primary1Stroke secondary1Fill" points="816.88 344.88 818.21 351.23 815.08 355.4 815.25 362.85 815.75 367.84 820.1 361.75 820.18 370.97 814.27 381.67 801.61 385.36 793.74 385.18 780.2 378.89 780.17 372.19 782.17 366.88 782.95 370.54 786.87 367.23 787.91 360.97 789.91 357.4 790.26 362.85 792.82 364.09 796.26 359.32 795.45 354.67 798.12 351.23 805.34 346.27 802.46 352.55 806.01 360.01 812.96 353.23 815.84 350.79 816.88 344.88"/> <polygon class="_fs1 primary1Stroke secondary1Fill" points="709.9 250.49 711.24 256.84 708.1 261.01 708.28 268.46 708.77 273.45 713.12 267.36 713.21 276.58 707.29 287.28 694.63 290.97 686.77 290.79 673.23 284.5 673.2 277.8 675.2 272.5 675.98 276.15 679.89 272.84 680.94 266.58 682.94 263.02 683.29 268.46 685.84 269.7 689.29 264.93 688.47 260.28 691.14 256.84 698.36 251.88 695.48 258.16 699.03 265.62 705.99 258.84 708.86 256.4 709.9 250.49"/> </svg><svg id="FLAME-FRAME-2" xmlns="http://www.w3.org/2000/svg" viewBox="0 0 873 480" class="showSlide2 altColors"> <defs> <style>._n3z{ stroke-miterlimit: 10; stroke-width: .5px}</style> </defs> <polygon class="_n3z primary1Stroke secondary1Fill" points="71.72 68.2 68.31 70.52 65.16 76.1 64.76 79.03 60.66 83.64 59.26 79.67 60.83 75.92 56.51 79.78 54.74 86.06 53.23 82.5 52.32 89.59 53.97 98.42 64.12 104.13 76.98 102.93 86.06 99.08 91.13 95.22 91.13 86.62 88.71 78.9 88.49 84.28 85.07 86.17 84.52 79.12 87.27 72.39 84.8 64.43 85.07 70.96 80.77 75.04 76.8 80.55 73.82 78.68 71.61 74.93 69.96 71.62 71.72 68.2"/> <polygon class="_n3z primary1Stroke secondary1Fill" points="277.41 68.2 273.99 70.52 270.84 76.1 270.44 79.03 266.34 83.64 264.94 79.67 266.51 75.92 262.19 79.78 260.42 86.06 258.91 82.5 258 89.59 259.65 98.42 269.8 104.13 282.66 102.93 291.74 99.08 296.81 95.22 296.81 86.62 294.39 78.9 294.17 84.28 290.75 86.17 290.2 79.12 292.95 72.39 290.48 64.43 290.75 70.96 286.45 75.04 282.48 80.55 279.5 78.68 277.29 74.93 275.64 71.62 277.41 68.2"/> <polygon class="_n3z primary1Stroke secondary1Fill" points="71.72 256.57 68.31 258.88 65.16 264.47 64.76 267.4 60.66 272 59.26 268.03 60.83 264.28 56.51 268.14 54.74 274.42 53.23 270.87 52.32 277.96 53.97 286.78 64.12 292.5 76.98 291.3 86.06 287.44 91.13 283.58 91.13 274.98 88.71 267.26 88.49 272.64 85.07 274.53 84.52 267.48 87.27 260.76 84.8 252.79 85.07 259.32 80.77 263.4 76.8 268.92 73.82 267.04 71.61 263.29 69.96 259.98 71.72 256.57"/> <polygon class="_n3z primary1Stroke secondary1Fill" points="174.56 162.59 171.15 164.91 168 170.49 167.6 173.42 163.5 178.03 162.1 174.06 163.67 170.31 159.35 174.17 157.58 180.45 156.07 176.89 155.16 183.98 156.81 192.8 166.96 198.52 179.82 197.32 188.9 193.47 193.97 189.61 193.97 181.01 191.55 173.29 191.33 178.67 187.91 180.56 187.36 173.51 190.11 166.78 187.64 158.81 187.91 165.35 183.61 169.43 179.64 174.94 176.66 173.07 174.45 169.32 172.8 166.01 174.56 162.59"/> <polygon class="_n3z primary1Stroke secondary1Fill" points="174.56 350.95 171.15 353.27 168 358.86 167.6 361.78 163.5 366.39 162.1 362.42 163.67 358.67 159.35 362.53 157.58 368.81 156.07 365.26 155.16 372.35 156.81 381.17 166.96 386.89 179.82 385.69 188.9 381.83 193.97 377.97 193.97 369.37 191.55 361.65 191.33 367.03 187.91 368.92 187.36 361.87 190.11 355.14 187.64 347.18 187.91 353.71 183.61 357.79 179.64 363.31 176.66 361.43 174.45 357.68 172.8 354.37 174.56 350.95"/> <polygon class="_n3z primary1Stroke secondary1Fill" points="384.38 162.59 380.96 164.91 377.82 170.49 377.42 173.42 373.31 178.03 371.92 174.06 373.49 170.31 369.16 174.17 367.4 180.45 365.88 176.89 364.97 183.98 366.63 192.8 376.77 198.52 389.64 197.32 398.72 193.47 403.79 189.61 403.79 181.01 401.36 173.29 401.14 178.67 397.72 180.56 397.17 173.51 399.93 166.78 397.46 158.81 397.72 165.35 393.42 169.43 389.45 174.94 386.48 173.07 384.27 169.32 382.62 166.01 384.38 162.59"/> <polygon class="_n3z primary1Stroke secondary1Fill" points="384.38 350.95 380.96 353.27 377.82 358.86 377.42 361.78 373.31 366.39 371.92 362.42 373.49 358.67 369.16 362.53 367.4 368.81 365.88 365.26 364.97 372.35 366.63 381.17 376.77 386.89 389.64 385.69 398.72 381.83 403.79 377.97 403.79 369.37 401.36 361.65 401.14 367.03 397.72 368.92 397.17 361.87 399.93 355.14 397.46 347.18 397.72 353.71 393.42 357.79 389.45 363.31 386.48 361.43 384.27 357.68 382.62 354.37 384.38 350.95"/> <polygon class="_n3z primary1Stroke secondary1Fill" points="277.41 256.57 273.99 258.88 270.84 264.47 270.44 267.4 266.34 272 264.94 268.03 266.51 264.28 262.19 268.14 260.42 274.42 258.91 270.87 258 277.96 259.65 286.78 269.8 292.5 282.66 291.3 291.74 287.44 296.81 283.58 296.81 274.98 294.39 267.26 294.17 272.64 290.75 274.53 290.2 267.48 292.95 260.76 290.48 252.79 290.75 259.32 286.45 263.4 282.48 268.92 279.5 267.04 277.29 263.29 275.64 259.98 277.41 256.57"/> <polygon class="_n3z primary1Stroke secondary1Fill" points="487.52 68.2 484.1 70.52 480.96 76.1 480.56 79.03 476.45 83.64 475.06 79.67 476.63 75.92 472.3 79.78 470.54 86.06 469.02 82.5 468.11 89.59 469.77 98.42 479.91 104.13 492.78 102.93 501.86 99.08 506.93 95.22 506.93 86.62 504.5 78.9 504.28 84.28 500.86 86.17 500.31 79.12 503.07 72.39 500.6 64.43 500.86 70.96 496.56 75.04 492.59 80.55 489.62 78.68 487.41 74.93 485.76 71.62 487.52 68.2"/> <polygon class="_n3z primary1Stroke secondary1Fill" points="693.2 68.2 689.78 70.52 686.64 76.1 686.24 79.03 682.13 83.64 680.74 79.67 682.31 75.92 677.98 79.78 676.22 86.06 674.7 82.5 673.79 89.59 675.45 98.42 685.59 104.13 698.46 102.93 707.54 99.08 712.61 95.22 712.61 86.62 710.18 78.9 709.96 84.28 706.55 86.17 705.99 79.12 708.75 72.39 706.28 64.43 706.55 70.96 702.24 75.04 698.27 80.55 695.3 78.68 693.09 74.93 691.44 71.62 693.2 68.2"/> <polygon class="_n3z primary1Stroke secondary1Fill" points="487.52 256.57 484.1 258.88 480.96 264.47 480.56 267.4 476.45 272 475.06 268.03 476.63 264.28 472.3 268.14 470.54 274.42 469.02 270.87 468.11 277.96 469.77 286.78 479.91 292.5 492.78 291.3 501.86 287.44 506.93 283.58 506.93 274.98 504.5 267.26 504.28 272.64 500.86 274.53 500.31 267.48 503.07 260.76 500.6 252.79 500.86 259.32 496.56 263.4 492.59 268.92 489.62 267.04 487.41 263.29 485.76 259.98 487.52 256.57"/> <polygon class="_n3z primary1Stroke secondary1Fill" points="590.36 162.59 586.94 164.91 583.8 170.49 583.4 173.42 579.29 178.03 577.9 174.06 579.47 170.31 575.14 174.17 573.38 180.45 571.86 176.89 570.95 183.98 572.61 192.8 582.75 198.52 595.62 197.32 604.7 193.47 609.77 189.61 609.77 181.01 607.34 173.29 607.12 178.67 603.71 180.56 603.15 173.51 605.91 166.78 603.44 158.81 603.71 165.35 599.4 169.43 595.43 174.94 592.46 173.07 590.25 169.32 588.6 166.01 590.36 162.59"/> <polygon class="_n3z primary1Stroke secondary1Fill" points="590.36 350.95 586.94 353.27 583.8 358.86 583.4 361.78 579.29 366.39 577.9 362.42 579.47 358.67 575.14 362.53 573.38 368.81 571.86 365.26 570.95 372.35 572.61 381.17 582.75 386.89 595.62 385.69 604.7 381.83 609.77 377.97 609.77 369.37 607.34 361.65 607.12 367.03 603.71 368.92 603.15 361.87 605.91 355.14 603.44 347.18 603.71 353.71 599.4 357.79 595.43 363.31 592.46 361.43 590.25 357.68 588.6 354.37 590.36 350.95"/> <polygon class="_n3z primary1Stroke secondary1Fill" points="800.18 162.59 796.76 164.91 793.61 170.49 793.22 173.42 789.11 178.03 787.72 174.06 789.28 170.31 784.96 174.17 783.2 180.45 781.68 176.89 780.77 183.98 782.42 192.8 792.57 198.52 805.43 197.32 814.51 193.47 819.59 189.61 819.59 181.01 817.16 173.29 816.94 178.67 813.52 180.56 812.97 173.51 815.73 166.78 813.26 158.81 813.52 165.35 809.22 169.43 805.25 174.94 802.27 173.07 800.07 169.32 798.41 166.01 800.18 162.59"/> <polygon class="_n3z primary1Stroke secondary1Fill" points="800.18 350.95 796.76 353.27 793.61 358.86 793.22 361.78 789.11 366.39 787.72 362.42 789.28 358.67 784.96 362.53 783.2 368.81 781.68 365.26 780.77 372.35 782.42 381.17 792.57 386.89 805.43 385.69 814.51 381.83 819.59 377.97 819.59 369.37 817.16 361.65 816.94 367.03 813.52 368.92 812.97 361.87 815.73 355.14 813.26 347.18 813.52 353.71 809.22 357.79 805.25 363.31 802.27 361.43 800.07 357.68 798.41 354.37 800.18 350.95"/> <polygon class="_n3z primary1Stroke secondary1Fill" points="693.2 256.57 689.78 258.88 686.64 264.47 686.24 267.4 682.13 272 680.74 268.03 682.31 264.28 677.98 268.14 676.22 274.42 674.7 270.87 673.79 277.96 675.45 286.78 685.59 292.5 698.46 291.3 707.54 287.44 712.61 283.58 712.61 274.98 710.18 267.26 709.96 272.64 706.55 274.53 705.99 267.48 708.75 260.76 706.28 252.79 706.55 259.32 702.24 263.4 698.27 268.92 695.3 267.04 693.09 263.29 691.44 259.98 693.2 256.57"/> </svg><svg id="FLAME-FRAME-3" xmlns="http://www.w3.org/2000/svg" viewBox="0 0 873 480" class="showSlide3"> <defs> <style>._8e2{ stroke-miterlimit: 10; stroke-width: .5px}</style> </defs> <polygon class="_8e2 primary1Stroke secondary1Fill" points="84.93 63.69 90.22 71.98 86.28 78.27 85.65 85.25 87.5 83.06 89.03 79.53 91.5 87.77 85.83 99.89 73.04 102.68 65.83 103.4 54.87 97.19 53.32 90.68 56.94 84.75 57.73 87.88 60.36 86.01 61.02 79.65 63.77 74.98 64.09 83.55 67.22 80.97 67.81 76.65 69.57 72.19 78.31 67.55 73.76 74.84 78.26 79.98 81.19 73.31 84.34 71.01 84.93 63.69"/> <polygon class="_8e2 primary1Stroke secondary1Fill" points="290.61 63.69 295.9 71.98 291.96 78.27 291.33 85.25 293.18 83.06 294.71 79.53 297.18 87.77 291.51 99.89 278.72 102.68 271.51 103.4 260.55 97.19 259 90.68 262.62 84.75 263.41 87.88 266.04 86.01 266.7 79.65 269.45 74.98 269.77 83.55 272.91 80.97 273.49 76.65 275.25 72.19 283.99 67.55 279.44 74.84 283.94 79.98 286.87 73.31 290.02 71.01 290.61 63.69"/> <polygon class="_8e2 primary1Stroke secondary1Fill" points="84.93 252.06 90.22 260.35 86.28 266.63 85.65 273.61 87.5 271.43 89.03 267.89 91.5 276.14 85.83 288.25 73.04 291.05 65.83 291.77 54.87 285.56 53.32 279.04 56.94 273.12 57.73 276.25 60.36 274.38 61.02 268.01 63.77 263.34 64.09 271.91 67.22 269.34 67.81 265.01 69.57 260.55 78.31 255.91 73.76 263.21 78.26 268.34 81.19 261.68 84.34 259.38 84.93 252.06"/> <polygon class="_8e2 primary1Stroke secondary1Fill" points="187.77 158.08 193.06 166.37 189.12 172.66 188.49 179.64 190.34 177.45 191.87 173.92 194.34 182.16 188.67 194.28 175.88 197.07 168.67 197.79 157.71 191.58 156.16 185.06 159.78 179.14 160.57 182.27 163.2 180.4 163.86 174.04 166.61 169.36 166.93 177.94 170.06 175.36 170.65 171.03 172.41 166.58 181.15 161.94 176.6 169.23 181.1 174.37 184.03 167.7 187.18 165.4 187.77 158.08"/> <polygon class="_8e2 primary1Stroke secondary1Fill" points="187.77 346.45 193.06 354.73 189.12 361.02 188.49 368 190.34 365.81 191.87 362.28 194.34 370.53 188.67 382.64 175.88 385.44 168.67 386.16 157.71 379.95 156.16 373.43 159.78 367.51 160.57 370.64 163.2 368.77 163.86 362.4 166.61 357.73 166.93 366.3 170.06 363.72 170.65 359.4 172.41 354.94 181.15 350.3 176.6 357.6 181.1 362.73 184.03 356.07 187.18 353.77 187.77 346.45"/> <polygon class="_8e2 primary1Stroke secondary1Fill" points="397.58 158.08 402.88 166.37 398.94 172.66 398.3 179.64 400.15 177.45 401.68 173.92 404.16 182.16 398.48 194.28 385.69 197.07 378.48 197.79 367.53 191.58 365.98 185.06 369.59 179.14 370.39 182.27 373.02 180.4 373.68 174.04 376.43 169.36 376.75 177.94 379.88 175.36 380.47 171.03 382.22 166.58 390.96 161.94 386.41 169.23 390.92 174.37 393.84 167.7 397 165.4 397.58 158.08"/> <polygon class="_8e2 primary1Stroke secondary1Fill" points="397.58 346.45 402.88 354.73 398.94 361.02 398.3 368 400.15 365.81 401.68 362.28 404.16 370.53 398.48 382.64 385.69 385.44 378.48 386.16 367.53 379.95 365.98 373.43 369.59 367.51 370.39 370.64 373.02 368.77 373.68 362.4 376.43 357.73 376.75 366.3 379.88 363.72 380.47 359.4 382.22 354.94 390.96 350.3 386.41 357.6 390.92 362.73 393.84 356.07 397 353.77 397.58 346.45"/> <polygon class="_8e2 primary1Stroke secondary1Fill" points="290.61 252.06 295.9 260.35 291.96 266.63 291.33 273.61 293.18 271.43 294.71 267.89 297.18 276.14 291.51 288.25 278.72 291.05 271.51 291.77 260.55 285.56 259 279.04 262.62 273.12 263.41 276.25 266.04 274.38 266.7 268.01 269.45 263.34 269.77 271.91 272.91 269.34 273.49 265.01 275.25 260.55 283.99 255.91 279.44 263.21 283.94 268.34 286.87 261.68 290.02 259.38 290.61 252.06"/> <polygon class="_8e2 primary1Stroke secondary1Fill" points="500.72 63.69 506.02 71.98 502.08 78.27 501.45 85.25 503.29 83.06 504.82 79.53 507.3 87.77 501.63 99.89 488.83 102.68 481.63 103.4 470.67 97.19 469.12 90.68 472.73 84.75 473.53 87.88 476.16 86.01 476.82 79.65 479.57 74.98 479.89 83.55 483.02 80.97 483.61 76.65 485.36 72.19 494.1 67.55 489.55 74.84 494.06 79.98 496.99 73.31 500.14 71.01 500.72 63.69"/> <polygon class="_8e2 primary1Stroke secondary1Fill" points="706.4 63.69 711.7 71.98 707.76 78.27 707.13 85.25 708.97 83.06 710.5 79.53 712.98 87.77 707.31 99.89 694.51 102.68 687.31 103.4 676.35 97.19 674.8 90.68 678.41 84.75 679.21 87.88 681.84 86.01 682.5 79.65 685.25 74.98 685.57 83.55 688.7 80.97 689.29 76.65 691.04 72.19 699.78 67.55 695.23 74.84 699.74 79.98 702.67 73.31 705.82 71.01 706.4 63.69"/> <polygon class="_8e2 primary1Stroke secondary1Fill" points="500.72 252.06 506.02 260.35 502.08 266.63 501.45 273.61 503.29 271.43 504.82 267.89 507.3 276.14 501.63 288.25 488.83 291.05 481.63 291.77 470.67 285.56 469.12 279.04 472.73 273.12 473.53 276.25 476.16 274.38 476.82 268.01 479.57 263.34 479.89 271.91 483.02 269.34 483.61 265.01 485.36 260.55 494.1 255.91 489.55 263.21 494.06 268.34 496.99 261.68 500.14 259.38 500.72 252.06"/> <polygon class="_8e2 primary1Stroke secondary1Fill" points="603.56 158.08 608.86 166.37 604.92 172.66 604.29 179.64 606.13 177.45 607.66 173.92 610.14 182.16 604.47 194.28 591.67 197.07 584.47 197.79 573.51 191.58 571.96 185.06 575.57 179.14 576.37 182.27 579 180.4 579.66 174.04 582.41 169.36 582.73 177.94 585.86 175.36 586.45 171.03 588.2 166.58 596.94 161.94 592.39 169.23 596.9 174.37 599.83 167.7 602.98 165.4 603.56 158.08"/> <polygon class="_8e2 primary1Stroke secondary1Fill" points="603.56 346.45 608.86 354.73 604.92 361.02 604.29 368 606.13 365.81 607.66 362.28 610.14 370.53 604.47 382.64 591.67 385.44 584.47 386.16 573.51 379.95 571.96 373.43 575.57 367.51 576.37 370.64 579 368.77 579.66 362.4 582.41 357.73 582.73 366.3 585.86 363.72 586.45 359.4 588.2 354.94 596.94 350.3 592.39 357.6 596.9 362.73 599.83 356.07 602.98 353.77 603.56 346.45"/> <polygon class="_8e2 primary1Stroke secondary1Fill" points="813.38 158.08 818.67 166.37 814.73 172.66 814.1 179.64 815.95 177.45 817.48 173.92 819.96 182.16 814.28 194.28 801.49 197.07 794.28 197.79 783.33 191.58 781.77 185.06 785.39 179.14 786.18 182.27 788.81 180.4 789.47 174.04 792.23 169.36 792.55 177.94 795.68 175.36 796.26 171.03 798.02 166.58 806.76 161.94 802.21 169.23 806.71 174.37 809.64 167.7 812.8 165.4 813.38 158.08"/> <polygon class="_8e2 primary1Stroke secondary1Fill" points="813.38 346.45 818.67 354.73 814.73 361.02 814.1 368 815.95 365.81 817.48 362.28 819.96 370.53 814.28 382.64 801.49 385.44 794.28 386.16 783.33 379.95 781.77 373.43 785.39 367.51 786.18 370.64 788.81 368.77 789.47 362.4 792.23 357.73 792.55 366.3 795.68 363.72 796.26 359.4 798.02 354.94 806.76 350.3 802.21 357.6 806.71 362.73 809.64 356.07 812.8 353.77 813.38 346.45"/> <polygon class="_8e2 primary1Stroke secondary1Fill" points="706.4 252.06 711.7 260.35 707.76 266.63 707.13 273.61 708.97 271.43 710.5 267.89 712.98 276.14 707.31 288.25 694.51 291.05 687.31 291.77 676.35 285.56 674.8 279.04 678.41 273.12 679.21 276.25 681.84 274.38 682.5 268.01 685.25 263.34 685.57 271.91 688.7 269.34 689.29 265.01 691.04 260.55 699.78 255.91 695.23 263.21 699.74 268.34 702.67 261.68 705.82 259.38 706.4 252.06"/> </svg><svg id="FLAME-FRAME-4" xmlns="http://www.w3.org/2000/svg" viewBox="0 0 873 480" class="showSlide4 altColors"> <defs> <style>._mcq{ stroke-miterlimit: 10; stroke-width: .5px}</style> </defs> <polygon class="_mcq primary1Stroke secondary1Fill" points="78.94 69.13 84.13 75.85 81.37 79.2 82.1 83.09 83.94 86.42 85.5 84.75 85.6 80.52 88.39 85.54 86.57 89.26 85.05 98.5 71.65 101.94 65.54 100.93 57.07 96.14 55.06 90.93 55.94 86.58 58.6 85.03 57.98 87.04 58.53 89.33 60.68 87.46 60.51 83.58 61.65 79.34 63.46 77.67 63.04 80.17 64.82 84.28 67.62 83.11 67.49 79.55 68.8 76.56 72.57 73.09 70.82 77.95 72.57 79.68 75.12 83.09 75.68 79.68 76.09 77.32 79.15 74.69 78.94 69.13"/> <polygon class="_mcq primary1Stroke secondary1Fill" points="284.62 69.13 289.81 75.85 287.05 79.2 287.79 83.09 289.62 86.42 291.18 84.75 291.28 80.52 294.07 85.54 292.26 89.26 290.73 98.5 277.33 101.94 271.22 100.93 262.75 96.14 260.74 90.93 261.62 86.58 264.28 85.03 263.66 87.04 264.21 89.33 266.36 87.46 266.19 83.58 267.33 79.34 269.14 77.67 268.72 80.17 270.5 84.28 273.3 83.11 273.17 79.55 274.48 76.56 278.25 73.09 276.5 77.95 278.25 79.68 280.8 83.09 281.36 79.68 281.77 77.32 284.83 74.69 284.62 69.13"/> <polygon class="_mcq primary1Stroke secondary1Fill" points="78.94 257.5 84.13 264.22 81.37 267.56 82.1 271.45 83.94 274.78 85.5 273.12 85.6 268.88 88.39 273.9 86.57 277.63 85.05 286.86 71.65 290.31 65.54 289.29 57.07 284.5 55.06 279.29 55.94 274.95 58.6 273.39 57.98 275.41 58.53 277.7 60.68 275.82 60.51 271.95 61.65 267.7 63.46 266.04 63.04 268.53 64.82 272.64 67.62 271.47 67.49 267.91 68.8 264.93 72.57 261.45 70.82 266.31 72.57 268.05 75.12 271.45 75.68 268.05 76.09 265.69 79.15 263.05 78.94 257.5"/> <polygon class="_mcq primary1Stroke secondary1Fill" points="181.78 163.52 186.97 170.24 184.21 173.59 184.94 177.47 186.78 180.81 188.34 179.14 188.44 174.91 191.23 179.93 189.42 183.65 187.89 192.89 174.49 196.33 168.38 195.31 159.91 190.53 157.9 185.32 158.78 180.97 161.44 179.42 160.82 181.43 161.37 183.72 163.52 181.85 163.35 177.97 164.49 173.73 166.3 172.06 165.88 174.56 167.66 178.67 170.46 177.5 170.33 173.93 171.64 170.95 175.41 167.48 173.66 172.34 175.41 174.07 177.96 177.47 178.52 174.07 178.93 171.71 181.99 169.08 181.78 163.52"/> <polygon class="_mcq primary1Stroke secondary1Fill" points="181.78 351.89 186.97 358.61 184.21 361.95 184.94 365.84 186.78 369.17 188.34 367.51 188.44 363.27 191.23 368.29 189.42 372.02 187.89 381.25 174.49 384.7 168.38 383.68 159.91 378.89 157.9 373.68 158.78 369.33 161.44 367.78 160.82 369.8 161.37 372.09 163.52 370.21 163.35 366.34 164.49 362.09 166.3 360.43 165.88 362.92 167.66 367.03 170.46 365.86 170.33 362.3 171.64 359.31 175.41 355.84 173.66 360.7 175.41 362.44 177.96 365.84 178.52 362.44 178.93 360.08 181.99 357.44 181.78 351.89"/> <polygon class="_mcq primary1Stroke secondary1Fill" points="391.6 163.52 396.78 170.24 394.02 173.59 394.76 177.47 396.59 180.81 398.16 179.14 398.26 174.91 401.05 179.93 399.23 183.65 397.7 192.89 384.31 196.33 378.2 195.31 369.73 190.53 367.72 185.32 368.6 180.97 371.26 179.42 370.63 181.43 371.19 183.72 373.34 181.85 373.17 177.97 374.31 173.73 376.12 172.06 375.7 174.56 377.48 178.67 380.28 177.5 380.14 173.93 381.46 170.95 385.23 167.48 383.47 172.34 385.23 174.07 387.78 177.47 388.33 174.07 388.75 171.71 391.8 169.08 391.6 163.52"/> <polygon class="_mcq primary1Stroke secondary1Fill" points="391.6 351.89 396.78 358.61 394.02 361.95 394.76 365.84 396.59 369.17 398.16 367.51 398.26 363.27 401.05 368.29 399.23 372.02 397.7 381.25 384.31 384.7 378.2 383.68 369.73 378.89 367.72 373.68 368.6 369.33 371.26 367.78 370.63 369.8 371.19 372.09 373.34 370.21 373.17 366.34 374.31 362.09 376.12 360.43 375.7 362.92 377.48 367.03 380.28 365.86 380.14 362.3 381.46 359.31 385.23 355.84 383.47 360.7 385.23 362.44 387.78 365.84 388.33 362.44 388.75 360.08 391.8 357.44 391.6 351.89"/> <polygon class="_mcq primary1Stroke secondary1Fill" points="284.62 257.5 289.81 264.22 287.05 267.56 287.79 271.45 289.62 274.78 291.18 273.12 291.28 268.88 294.07 273.9 292.26 277.63 290.73 286.86 277.33 290.31 271.22 289.29 262.75 284.5 260.74 279.29 261.62 274.95 264.28 273.39 263.66 275.41 264.21 277.7 266.36 275.82 266.19 271.95 267.33 267.7 269.14 266.04 268.72 268.53 270.5 272.64 273.3 271.47 273.17 267.91 274.48 264.93 278.25 261.45 276.5 266.31 278.25 268.05 280.8 271.45 281.36 268.05 281.77 265.69 284.83 263.05 284.62 257.5"/> <polygon class="_mcq primary1Stroke secondary1Fill" points="494.74 69.13 499.92 75.85 497.17 79.2 497.9 83.09 499.73 86.42 501.3 84.75 501.4 80.52 504.19 85.54 502.37 89.26 500.84 98.5 487.45 101.94 481.34 100.93 472.87 96.14 470.86 90.93 471.74 86.58 474.4 85.03 473.77 87.04 474.33 89.33 476.48 87.46 476.31 83.58 477.45 79.34 479.26 77.67 478.84 80.17 480.62 84.28 483.42 83.11 483.28 79.55 484.6 76.56 488.37 73.09 486.61 77.95 488.37 79.68 490.92 83.09 491.47 79.68 491.89 77.32 494.94 74.69 494.74 69.13"/> <polygon class="_mcq primary1Stroke secondary1Fill" points="700.42 69.13 705.6 75.85 702.85 79.2 703.58 83.09 705.41 86.42 706.98 84.75 707.08 80.52 709.87 85.54 708.05 89.26 706.53 98.5 693.13 101.94 687.02 100.93 678.55 96.14 676.54 90.93 677.42 86.58 680.08 85.03 679.45 87.04 680.01 89.33 682.16 87.46 681.99 83.58 683.13 79.34 684.94 77.67 684.52 80.17 686.3 84.28 689.1 83.11 688.96 79.55 690.28 76.56 694.05 73.09 692.29 77.95 694.05 79.68 696.6 83.09 697.15 79.68 697.57 77.32 700.62 74.69 700.42 69.13"/> <polygon class="_mcq primary1Stroke secondary1Fill" points="494.74 257.5 499.92 264.22 497.17 267.56 497.9 271.45 499.73 274.78 501.3 273.12 501.4 268.88 504.19 273.9 502.37 277.63 500.84 286.86 487.45 290.31 481.34 289.29 472.87 284.5 470.86 279.29 471.74 274.95 474.4 273.39 473.77 275.41 474.33 277.7 476.48 275.82 476.31 271.95 477.45 267.7 479.26 266.04 478.84 268.53 480.62 272.64 483.42 271.47 483.28 267.91 484.6 264.93 488.37 261.45 486.61 266.31 488.37 268.05 490.92 271.45 491.47 268.05 491.89 265.69 494.94 263.05 494.74 257.5"/> <polygon class="_mcq primary1Stroke secondary1Fill" points="597.58 163.52 602.76 170.24 600.01 173.59 600.74 177.47 602.57 180.81 604.14 179.14 604.24 174.91 607.03 179.93 605.21 183.65 603.68 192.89 590.29 196.33 584.18 195.31 575.71 190.53 573.7 185.32 574.58 180.97 577.24 179.42 576.61 181.43 577.17 183.72 579.32 181.85 579.15 177.97 580.29 173.73 582.1 172.06 581.68 174.56 583.46 178.67 586.26 177.5 586.12 173.93 587.44 170.95 591.21 167.48 589.45 172.34 591.21 174.07 593.76 177.47 594.31 174.07 594.73 171.71 597.78 169.08 597.58 163.52"/> <polygon class="_mcq primary1Stroke secondary1Fill" points="597.58 351.89 602.76 358.61 600.01 361.95 600.74 365.84 602.57 369.17 604.14 367.51 604.24 363.27 607.03 368.29 605.21 372.02 603.68 381.25 590.29 384.7 584.18 383.68 575.71 378.89 573.7 373.68 574.58 369.33 577.24 367.78 576.61 369.8 577.17 372.09 579.32 370.21 579.15 366.34 580.29 362.09 582.1 360.43 581.68 362.92 583.46 367.03 586.26 365.86 586.12 362.3 587.44 359.31 591.21 355.84 589.45 360.7 591.21 362.44 593.76 365.84 594.31 362.44 594.73 360.08 597.78 357.44 597.58 351.89"/> <polygon class="_mcq primary1Stroke secondary1Fill" points="807.39 163.52 812.58 170.24 809.82 173.59 810.56 177.47 812.39 180.81 813.95 179.14 814.06 174.91 816.84 179.93 815.03 183.65 813.5 192.89 800.1 196.33 793.99 195.31 785.53 190.53 783.51 185.32 784.39 180.97 787.05 179.42 786.43 181.43 786.98 183.72 789.14 181.85 788.96 177.97 790.11 173.73 791.91 172.06 791.5 174.56 793.28 178.67 796.08 177.5 795.94 173.93 797.26 170.95 801.02 167.48 799.27 172.34 801.02 174.07 803.57 177.47 804.13 174.07 804.55 171.71 807.6 169.08 807.39 163.52"/> <polygon class="_mcq primary1Stroke secondary1Fill" points="807.39 351.89 812.58 358.61 809.82 361.95 810.56 365.84 812.39 369.17 813.95 367.51 814.06 363.27 816.84 368.29 815.03 372.02 813.5 381.25 800.1 384.7 793.99 383.68 785.53 378.89 783.51 373.68 784.39 369.33 787.05 367.78 786.43 369.8 786.98 372.09 789.14 370.21 788.96 366.34 790.11 362.09 791.91 360.43 791.5 362.92 793.28 367.03 796.08 365.86 795.94 362.3 797.26 359.31 801.02 355.84 799.27 360.7 801.02 362.44 803.57 365.84 804.13 362.44 804.55 360.08 807.6 357.44 807.39 351.89"/> <polygon class="_mcq primary1Stroke secondary1Fill" points="700.42 257.5 705.6 264.22 702.85 267.56 703.58 271.45 705.41 274.78 706.98 273.12 707.08 268.88 709.87 273.9 708.05 277.63 706.53 286.86 693.13 290.31 687.02 289.29 678.55 284.5 676.54 279.29 677.42 274.95 680.08 273.39 679.45 275.41 680.01 277.7 682.16 275.82 681.99 271.95 683.13 267.7 684.94 266.04 684.52 268.53 686.3 272.64 689.1 271.47 688.96 267.91 690.28 264.93 694.05 261.45 692.29 266.31 694.05 268.05 696.6 271.45 697.15 268.05 697.57 265.69 700.62 263.05 700.42 257.5"/> </svg></svg>